<svg width="70" height="70" viewBox="0 0 70 70" fill="none" xmlns="http://www.w3.org/2000/svg">
<path fill-rule="evenodd" clip-rule="evenodd" d="M68.6328 32.4675C67.8777 32.4675 67.2656 33.0795 67.2656 33.8347V53.9206C67.2656 55.4496 66.0218 56.6929 64.4933 56.6929H5.50667C3.97766 56.6929 2.73438 55.4496 2.73438 53.9206V52.5534C2.73438 51.7982 2.12234 51.1862 1.36719 51.1862C0.61203 51.1862 0 51.7982 0 52.5534V53.9206C0 56.9572 2.47002 59.4273 5.50667 59.4273H23.6983V66.6274H19.1668C18.4116 66.6274 17.7996 67.2395 17.7996 67.9946C17.7996 68.7498 18.4116 69.3618 19.1668 69.3618H50.8332C51.5884 69.3618 52.2004 68.7498 52.2004 67.9946C52.2004 67.2395 51.5884 66.6274 50.8332 66.6274H46.3017V59.4273H64.4933C67.53 59.4273 70 56.9572 70 53.9206V33.8347C70 33.0795 69.388 32.4675 68.6328 32.4675ZM43.5674 66.6274H26.4326V59.4273H43.5674V66.6274Z" fill="#0F2B3D"/>
<path fill-rule="evenodd" clip-rule="evenodd" d="M64.4933 16.0233H52.5331V11.142C52.5331 11.1266 52.5315 11.1116 52.531 11.0961C52.5304 11.0806 52.5294 11.0651 52.5283 11.0497C52.5246 10.9914 52.5182 10.9343 52.5069 10.8777C52.5069 10.8766 52.5069 10.8755 52.5064 10.8745C52.4952 10.8168 52.4786 10.7602 52.4594 10.7047C52.4551 10.6908 52.4498 10.6763 52.4445 10.6625C52.4247 10.6096 52.4028 10.5583 52.3766 10.5081C52.375 10.5054 52.374 10.5022 52.3724 10.4996C52.3446 10.4472 52.3125 10.3976 52.2784 10.3495C52.2693 10.3372 52.2602 10.3249 52.2511 10.3132C52.2143 10.2651 52.1758 10.2181 52.1326 10.1754L42.9046 0.947418C42.9041 0.946884 42.9035 0.94635 42.9035 0.94635C42.8603 0.903625 42.8143 0.865173 42.7673 0.828857C42.7551 0.819244 42.7428 0.810165 42.7299 0.80162C42.6819 0.766907 42.6322 0.734863 42.5804 0.707092C42.5772 0.70549 42.574 0.704422 42.5708 0.70282C42.5211 0.676651 42.4699 0.654755 42.4175 0.634994C42.4031 0.629654 42.3892 0.624847 42.3748 0.620041C42.3193 0.601349 42.2626 0.584793 42.205 0.573044C42.2044 0.573044 42.2039 0.573044 42.2034 0.573044C42.1462 0.561829 42.088 0.55542 42.0298 0.551682C42.0143 0.550613 41.9994 0.549545 41.9844 0.549011C41.9689 0.548477 41.9534 0.546875 41.9379 0.546875H18.8341C18.0789 0.546875 17.4669 1.1589 17.4669 1.91406V16.0233H5.50667C2.47002 16.0233 0 18.4933 0 21.53V41.6159C0 42.3711 0.61203 42.9831 1.36719 42.9831C2.12234 42.9831 2.73438 42.3711 2.73438 41.6159V21.53C2.73438 20.001 3.97819 18.7577 5.50667 18.7577H17.4669V45.5621C17.4669 46.3167 18.0789 46.9292 18.8341 46.9292H51.1654C51.9205 46.9292 52.5326 46.3167 52.5326 45.5621V18.7577H64.4933C66.0218 18.7577 67.2651 20.001 67.2651 21.53V22.8972C67.2651 23.6518 67.8777 24.2644 68.6323 24.2644C69.3874 24.2644 69.9995 23.6518 69.9995 22.8972V21.53C70 18.4933 67.53 16.0233 64.4933 16.0233ZM43.3051 5.21454L45.585 7.49496L47.8654 9.77486H43.3051V5.21454ZM49.7987 44.1949H20.2013V3.28125H40.5708V11.142C40.5708 11.8972 41.1828 12.5092 41.9379 12.5092H49.7987V44.1949Z" fill="#0F2B3D"/>
<path fill-rule="evenodd" clip-rule="evenodd" d="M28.7788 18.7577H41.2212C41.9759 18.7577 42.5884 18.1457 42.5884 17.3905C42.5884 16.6353 41.9759 16.0233 41.2212 16.0233H28.7788C28.0236 16.0233 27.4116 16.6353 27.4116 17.3905C27.4116 18.1457 28.0236 18.7577 28.7788 18.7577Z" fill="#0F2B3D"/>
<path fill-rule="evenodd" clip-rule="evenodd" d="M45.7623 21.8189H24.2377C23.4825 21.8189 22.8705 22.4309 22.8705 23.1861C22.8705 23.9407 23.4825 24.5533 24.2377 24.5533H45.7623C46.5175 24.5533 47.1295 23.9407 47.1295 23.1861C47.1295 22.4309 46.5175 21.8189 45.7623 21.8189Z" fill="#0F2B3D"/>
<path fill-rule="evenodd" clip-rule="evenodd" d="M45.7623 27.614H24.2377C23.4825 27.614 22.8705 28.226 22.8705 28.9812C22.8705 29.7363 23.4825 30.3484 24.2377 30.3484H45.7623C46.5175 30.3484 47.1295 29.7363 47.1295 28.9812C47.1295 28.226 46.5175 27.614 45.7623 27.614Z" fill="#0F2B3D"/>
<path fill-rule="evenodd" clip-rule="evenodd" d="M1.36719 48.4518C2.12021 48.4518 2.73438 47.8377 2.73438 47.0847C2.73438 46.3316 2.12021 45.7175 1.36719 45.7175C0.614166 45.7175 0 46.3316 0 47.0847C0 47.8377 0.614166 48.4518 1.36719 48.4518Z" fill="#0F2B3D"/>
<path fill-rule="evenodd" clip-rule="evenodd" d="M68.6328 26.9987C67.8798 26.9987 67.2656 27.6129 67.2656 28.3659C67.2656 29.119 67.8798 29.7331 68.6328 29.7331C69.3858 29.7331 70 29.119 70 28.3659C70 27.6129 69.3858 26.9987 68.6328 26.9987Z" fill="#0F2B3D"/>
</svg>
