<svg width="80" height="80" viewBox="0 0 80 80" fill="none" xmlns="http://www.w3.org/2000/svg">
<path d="M48.536 30.6927C49.6225 29.1838 50.2824 27.4092 50.4453 25.5561L65.6693 21.4661L70.3786 31.0124L80.0002 28.4181L79.0542 13.8274L72.5766 0.701416L62.9713 3.29165L63.6484 13.9085L48.1454 18.0643C45.5604 14.8684 41.3384 13.4951 37.371 14.5605C33.4036 15.626 30.4342 18.9299 29.7932 22.9919L0 30.9787L2.03105 38.544L5.24744 37.6794L13.6222 68.9845H0.984722V79.4198H79.1514V68.9845H58.7854L48.536 30.6927ZM33.7056 32.893C33.8359 32.9899 33.9658 33.0684 34.0961 33.1545C34.2524 33.2651 34.4077 33.3732 34.5706 33.4752C34.8441 33.646 35.1267 33.7974 35.4159 33.9437C35.5737 34.0232 35.7259 34.1078 35.8873 34.1797C35.9383 34.2021 35.9841 34.2317 36.034 34.2521L26.7433 68.9845H24.0442L33.7056 32.893ZM38.5467 34.953C39.5548 35.1096 40.5813 35.1096 41.5895 34.953L50.6953 68.9845H29.4418L38.5467 34.953ZM44.1017 34.2567C44.1526 34.2358 44.1979 34.2047 44.2488 34.1838C44.4077 34.1129 44.5604 34.0268 44.7157 33.9488C45.0029 33.804 45.286 33.6536 45.5599 33.4828C45.7274 33.3783 45.8868 33.2662 46.0482 33.153C46.178 33.0643 46.3084 32.9888 46.4311 32.892L56.0925 68.9845H53.3929L44.1017 34.2567ZM71.1876 3.77697L76.4875 14.5187L77.2614 26.4579L71.7686 27.9368L68.237 20.7753H68.2457L66.4692 17.2007L65.707 5.25586L71.1876 3.77697ZM63.8175 16.5599L63.9025 17.8802L64.4926 19.0762L50.3471 22.8813C50.2727 22.4403 50.1689 22.0039 50.0385 21.5767C50.0151 21.5008 49.9795 21.4294 49.9555 21.3539C49.8461 21.0251 49.7335 20.7014 49.5915 20.3782L63.8175 16.5599ZM40.0681 16.8097C44.3583 16.798 47.8506 20.2584 47.8848 24.5529V24.636C47.87 26.8546 46.9275 28.9661 45.286 30.4572C45.2702 30.47 45.2519 30.4807 45.2366 30.4944C43.648 31.9091 41.5513 32.6116 39.4332 32.4393C37.3145 32.267 35.3583 31.2341 34.0192 29.5819C33.7346 29.2404 33.4805 28.8748 33.2585 28.4894C32.5976 27.3134 32.2509 25.9854 32.2514 24.636C32.2514 24.4917 32.2601 24.3479 32.2789 24.2052V24.1955L32.4367 23.0464C33.1822 19.4188 36.369 16.8138 40.0681 16.8097ZM3.19958 32.8232L29.702 25.7177C29.702 25.7626 29.7188 25.8059 29.7239 25.8482C29.7479 26.0522 29.7896 26.2505 29.8247 26.4498C29.866 26.6858 29.9042 26.9224 29.9612 27.1538C30.0096 27.347 30.0732 27.5351 30.1318 27.7243C30.1903 27.9134 30.2285 28.0872 30.2932 28.2616L3.87219 35.3522L3.19958 32.8232ZM7.75965 37.009L31.5391 30.6275C31.5559 30.6515 31.5737 30.6724 31.591 30.6958L21.3512 68.9845H16.3146L7.75965 37.009ZM76.5461 71.5935V76.8107H3.59011V71.5935H76.5461Z" fill="#3BB3C4"/>
</svg>
