<svg width="80" height="80" viewBox="0 0 80 80" fill="none" xmlns="http://www.w3.org/2000/svg">
<g clip-path="url(#clip0)">
<path d="M19.8751 27.4388H9.67776C9.19387 27.4388 8.74758 27.7015 8.51223 28.125L5.37599 33.7715C5.26564 33.97 5.20802 34.194 5.20802 34.4214V36.7865C5.20802 37.5244 5.80519 38.122 6.54201 38.122H19.8751C20.6119 38.122 21.2085 37.5244 21.2085 36.7865V28.7739C21.2081 28.0369 20.6109 27.4388 19.8751 27.4388ZM18.5416 35.4514H7.87502V34.7672L10.4615 30.109H18.5416V35.4514Z" fill="#3BB3C4"/>
<path d="M78.5411 14.0845H30.5416C29.8052 14.0845 29.2085 14.6821 29.2085 15.4201V46.1346H26.542V23.4326C26.542 22.6946 25.9449 22.097 25.208 22.097H6.542C6.05763 22.097 5.61183 22.3596 5.37599 22.7831L0.042969 32.385C-0.0668944 32.5836 -0.125 32.8071 -0.125 33.0345V60.824C-0.125 61.5615 0.471681 62.1591 1.2085 62.1591H6.292C8.48878 65.9849 13.3657 67.3024 17.1846 65.1022C18.4063 64.3984 19.4204 63.3832 20.1226 62.1591H43.6256C45.8223 65.9849 50.6988 67.3024 54.5182 65.1022C55.7398 64.3984 56.7535 63.3832 57.4562 62.1591H60.9591C63.1559 65.9849 68.0323 67.3024 71.8512 65.1022C73.0734 64.3984 74.087 63.3832 74.7897 62.1591H78.5421C79.278 62.1591 79.8751 61.5615 79.8751 60.824V15.4201C79.8751 14.6821 79.278 14.0845 78.5411 14.0845ZM31.8751 16.7551H77.2081V46.1346H31.8751V16.7551ZM77.2081 48.8052V54.1471H74.8082C74.7828 54.1016 74.7496 54.063 74.7218 54.0136C74.6417 53.8796 74.5509 53.7558 74.463 53.6292C74.339 53.4487 74.2135 53.2707 74.0763 53.103C73.9777 52.9812 73.8722 52.8663 73.7653 52.7499C73.6212 52.5944 73.4747 52.4418 73.3195 52.2975C73.2047 52.1909 73.0865 52.0882 72.9659 51.9879C72.8029 51.8539 72.6349 51.7204 72.463 51.6045C72.3297 51.5165 72.2086 51.428 72.0768 51.3463C71.8951 51.2333 71.7072 51.1321 71.5162 51.0343C71.3834 50.9649 71.2496 50.8939 71.1163 50.8323C70.9127 50.7418 70.7032 50.6675 70.4908 50.5932C70.358 50.5467 70.2247 50.4929 70.0909 50.4533C69.8536 50.3853 69.61 50.3374 69.3658 50.29C69.2457 50.2675 69.13 50.2357 69.0084 50.2181C68.2648 50.108 67.5094 50.108 66.7657 50.2181C66.6461 50.2357 66.5314 50.2675 66.4137 50.29C66.1671 50.3374 65.922 50.3853 65.6817 50.4548C65.5489 50.4939 65.4151 50.5443 65.2823 50.5883C65.065 50.6641 64.8502 50.7409 64.6417 50.8343C64.5089 50.893 64.3829 50.9595 64.2555 51.025C64.0553 51.1277 63.8556 51.2348 63.6671 51.3532C63.5465 51.4294 63.4298 51.5097 63.3126 51.5908C63.1256 51.7219 62.9449 51.8598 62.7701 52.0055C62.6617 52.0945 62.5582 52.185 62.4557 52.2804C62.2833 52.4393 62.1207 52.6076 61.962 52.7812C61.8717 52.8829 61.7794 52.9817 61.6949 53.0868C61.5431 53.2741 61.4034 53.4702 61.2662 53.6717C61.1915 53.7827 61.1129 53.8908 61.0421 54.0057C61.0138 54.0522 60.9781 54.0938 60.9513 54.1388H57.4752C57.4503 54.0938 57.4166 54.0551 57.3883 54.0057C57.3087 53.8722 57.2174 53.7475 57.1295 53.6213C57.006 53.4409 56.8805 53.2629 56.7433 53.0946C56.6446 52.9734 56.5387 52.8584 56.4327 52.742C56.2887 52.586 56.1422 52.4339 55.9859 52.2897C55.8712 52.1826 55.754 52.0799 55.6324 51.9796C55.4703 51.8466 55.3018 51.7126 55.13 51.5967C54.9967 51.5087 54.8751 51.4206 54.7433 51.3385C54.5621 51.2255 54.3741 51.1238 54.1837 51.026C54.0499 50.957 53.9166 50.8861 53.7833 50.825C53.5792 50.734 53.3697 50.6592 53.1583 50.5854C53.025 50.5389 52.8912 50.4856 52.7584 50.4455C52.5211 50.3775 52.2769 50.3291 52.0328 50.2826C51.9132 50.2597 51.797 50.2279 51.6754 50.2107C50.9322 50.1002 50.1759 50.1002 49.4327 50.2107C49.3131 50.2279 49.1983 50.2597 49.0811 50.2826C48.8336 50.3291 48.5885 50.3775 48.3487 50.4465C48.2154 50.4856 48.0816 50.5364 47.9488 50.5805C47.7315 50.6563 47.5167 50.7326 47.3092 50.8265C47.1754 50.8851 47.0504 50.9516 46.922 51.0172C46.7218 51.1199 46.5225 51.2265 46.3345 51.3458C46.213 51.4216 46.0968 51.5018 45.9791 51.5835C45.793 51.7146 45.6119 51.852 45.4366 51.9977C45.3287 52.0867 45.2247 52.1777 45.1221 52.2726C44.9503 52.4315 44.7872 52.5997 44.6285 52.7733C44.5382 52.8746 44.4459 52.9739 44.3619 53.079C44.2095 53.2658 44.0699 53.4624 43.9327 53.6639C43.858 53.7744 43.7794 53.883 43.7086 53.9979C43.6807 54.0449 43.6446 54.0859 43.6182 54.1309H26.542V48.8052H77.2081ZM20.1416 54.1471C20.1162 54.1016 20.083 54.063 20.0552 54.0136C19.9751 53.8796 19.8843 53.7558 19.7964 53.6292C19.6724 53.4487 19.5464 53.2707 19.4092 53.103C19.3111 52.9812 19.2056 52.8663 19.0987 52.7499C18.9551 52.5944 18.8081 52.4418 18.6524 52.2975C18.5376 52.1909 18.42 52.0882 18.2989 51.9879C18.1363 51.8539 17.9683 51.7204 17.7959 51.6045C17.6631 51.5165 17.5415 51.428 17.4097 51.3463C17.2285 51.2333 17.0406 51.1321 16.8496 51.0343C16.7163 50.9649 16.5825 50.8939 16.4497 50.8323C16.2456 50.7418 16.0366 50.6675 15.8247 50.5932C15.6909 50.5467 15.5581 50.4929 15.4243 50.4533C15.187 50.3853 14.9434 50.3374 14.6992 50.29C14.5791 50.2675 14.4629 50.2357 14.3413 50.2181C13.5982 50.108 12.8423 50.108 12.0991 50.2181C11.979 50.2357 11.8648 50.2675 11.7471 50.29C11.5005 50.3374 11.2549 50.3853 11.0152 50.4548C10.8819 50.4939 10.7486 50.5443 10.6153 50.5883C10.398 50.6641 10.1831 50.7409 9.97511 50.8343C9.84181 50.893 9.71632 50.9595 9.58888 51.025C9.38869 51.1277 9.18849 51.2348 9.0005 51.3532C8.87892 51.4294 8.76271 51.5097 8.64552 51.5908C8.459 51.7219 8.27833 51.8598 8.10304 52.0055C7.99513 52.0945 7.89113 52.185 7.7881 52.2804C7.61671 52.4393 7.45363 52.6076 7.29493 52.7812C7.2046 52.8829 7.11232 52.9817 7.02833 53.0868C6.87648 53.2741 6.73634 53.4702 6.59913 53.6717C6.52394 53.7827 6.44581 53.8908 6.37501 54.0057C6.34718 54.0522 6.31105 54.0938 6.28419 54.1388H2.54151V43.4639H23.875V54.1471H20.1416ZM2.54151 33.3817L7.3257 24.7677H23.875V40.7932H2.54151V33.3817ZM2.54151 59.4884V56.8177H5.31886C5.31056 56.8637 5.31886 56.9102 5.30714 56.9517C5.1753 57.7425 5.1753 58.5499 5.30714 59.3417C5.30714 59.3896 5.30714 59.4376 5.31886 59.485L2.54151 59.4884ZM13.208 63.4952C11.0908 63.4903 9.17384 62.2383 8.31496 60.2993C7.13331 57.5924 8.36623 54.4381 11.0689 53.2546C13.772 52.0701 16.9209 53.3049 18.1031 56.0128C19.2837 58.7152 18.0523 61.8647 15.354 63.0467C14.6773 63.3436 13.9468 63.4962 13.208 63.4952ZM21.0977 59.4884C21.1055 59.4434 21.0977 59.397 21.1099 59.3554C21.2408 58.5636 21.2408 57.7562 21.1099 56.965C21.1099 56.9165 21.1099 56.8686 21.0977 56.8222H42.6519C42.6441 56.8671 42.6519 56.9136 42.6407 56.9552C42.5089 57.7469 42.5089 58.5543 42.6407 59.3456C42.647 59.3936 42.6407 59.442 42.6519 59.4884H21.0977ZM50.5416 63.4952C48.4234 63.4903 46.5069 62.2383 45.6485 60.2993C44.4576 57.5929 45.6827 54.4317 48.3853 53.2389C51.087 52.0471 54.2428 53.2741 55.4337 55.98C56.6241 58.6864 55.3995 61.8476 52.6974 63.0404C52.0182 63.3397 51.2838 63.4952 50.5416 63.4952ZM58.4308 59.4884C58.4391 59.4434 58.4308 59.397 58.443 59.3554C58.5743 58.5636 58.5743 57.7562 58.443 56.965C58.4366 56.9165 58.443 56.8686 58.4308 56.8222H59.9855C59.9776 56.8671 59.9855 56.9136 59.9732 56.9552C59.8419 57.7469 59.8419 58.5543 59.9732 59.3456C59.9801 59.3936 59.9732 59.442 59.9855 59.4884H58.4308ZM67.8751 63.4952C65.7569 63.4903 63.8404 62.2383 62.9816 60.2993C61.7911 57.5929 63.0157 54.4317 65.7184 53.2389C68.4205 52.0471 71.5763 53.2741 72.7667 55.98C73.9576 58.6864 72.7325 61.8476 70.0309 63.0404C69.3512 63.3397 68.6173 63.4952 67.8751 63.4952ZM77.2081 59.4884H75.7643C75.7721 59.4434 75.7643 59.397 75.7765 59.3554C75.9078 58.5636 75.9078 57.7562 75.7765 56.965C75.7697 56.9165 75.7765 56.8686 75.7643 56.8222H77.2081V59.4884Z" fill="#3BB3C4"/>
<path d="M54.5416 19.4258C53.8053 19.4258 53.2081 20.0239 53.2081 20.7619V42.1282C53.2081 42.8657 53.8053 43.4638 54.5416 43.4638C55.2779 43.4638 55.8746 42.8657 55.8746 42.1282V20.7619C55.8746 20.0239 55.2779 19.4258 54.5416 19.4258Z" fill="#3BB3C4"/>
<path d="M62.5416 19.4258C61.8048 19.4258 61.2081 20.0239 61.2081 20.7619V42.1282C61.2081 42.8657 61.8048 43.4638 62.5416 43.4638C63.2779 43.4638 63.8751 42.8657 63.8751 42.1282V20.7619C63.8751 20.0239 63.2779 19.4258 62.5416 19.4258Z" fill="#3BB3C4"/>
<path d="M38.5416 19.4258C37.8052 19.4258 37.2086 20.0239 37.2086 20.7619V42.1282C37.2086 42.8657 37.8052 43.4638 38.5416 43.4638C39.2779 43.4638 39.8751 42.8657 39.8751 42.1282V20.7619C39.8751 20.0239 39.2779 19.4258 38.5416 19.4258Z" fill="#3BB3C4"/>
<path d="M46.5421 19.4258C45.8052 19.4258 45.2081 20.0239 45.2081 20.7619V42.1282C45.2081 42.8657 45.8052 43.4638 46.5421 43.4638C47.2779 43.4638 47.8751 42.8657 47.8751 42.1282V20.7619C47.8751 20.0239 47.2779 19.4258 46.5421 19.4258Z" fill="#3BB3C4"/>
<path d="M70.5416 19.4258C69.8053 19.4258 69.2086 20.0239 69.2086 20.7619V42.1282C69.2086 42.8657 69.8053 43.4638 70.5416 43.4638C71.2784 43.4638 71.8751 42.8657 71.8751 42.1282V20.7619C71.8751 20.0239 71.2784 19.4258 70.5416 19.4258Z" fill="#3BB3C4"/>
<path d="M15.8745 58.1533C15.8745 59.6283 14.6807 60.824 13.208 60.824C11.7354 60.824 10.5415 59.6283 10.5415 58.1533C10.5415 56.6784 11.7354 55.4827 13.208 55.4827C14.6807 55.4827 15.8745 56.6784 15.8745 58.1533Z" fill="#3BB3C4"/>
<path d="M53.2081 58.1533C53.2081 59.6283 52.0143 60.824 50.5416 60.824C49.069 60.824 47.8751 59.6283 47.8751 58.1533C47.8751 56.6784 49.069 55.4827 50.5416 55.4827C52.0143 55.4827 53.2081 56.6784 53.2081 58.1533Z" fill="#3BB3C4"/>
<path d="M70.5416 58.1533C70.5416 59.6283 69.3478 60.824 67.8751 60.824C66.402 60.824 65.2081 59.6283 65.2081 58.1533C65.2081 56.6784 66.402 55.4827 67.8751 55.4827C69.3478 55.4827 70.5416 56.6784 70.5416 58.1533Z" fill="#3BB3C4"/>
</g>
<defs>
<clipPath id="clip0">
<rect width="80" height="80" fill="white"/>
</clipPath>
</defs>
</svg>
