<svg width="80" height="80" viewBox="0 0 80 80" fill="none" xmlns="http://www.w3.org/2000/svg">
<g clip-path="url(#clip0)">
<path d="M31.7064 61.4883C31.8991 61.0156 31.9987 60.5104 32 60V57.3333C31.9968 56.3464 31.6257 55.3958 30.9603 54.6667C31.6257 53.9375 31.9968 52.987 32 52V49.3333C32 47.1244 30.209 45.3333 28 45.3333H22.3744C29.3288 42.3125 33.2077 34.8262 31.6654 27.4023C30.1224 19.9792 23.5821 14.6582 16 14.6582C8.41801 14.6582 1.87765 19.9792 0.334676 27.4023C-1.20764 34.8262 2.67126 42.3125 9.62569 45.3333H4.00004C1.79106 45.3333 4.10033e-05 47.1244 4.10033e-05 49.3333V52C0.0032962 52.987 0.37439 53.9375 1.03975 54.6667C0.37439 55.3958 0.0032962 56.3464 4.10033e-05 57.3333V60C0.0078535 61.8021 1.21944 63.377 2.96033 63.8451C2.76762 64.3177 2.66801 64.8229 2.66671 65.3333V68C2.66801 68.5104 2.76762 69.0156 2.96033 69.4883C1.21944 69.9564 0.0078535 71.5312 4.10033e-05 73.3333V76C4.10033e-05 78.209 1.79106 80 4.00004 80H28C30.209 80 32 78.209 32 76V73.3333C31.9987 72.8229 31.8991 72.3177 31.7064 71.8451C33.4473 71.377 34.6589 69.8021 34.6667 68V65.3333C34.6589 63.5312 33.4473 61.9564 31.7064 61.4883ZM2.66671 30.6667C2.66671 23.3027 8.63611 17.3333 16 17.3333C23.364 17.3333 29.3334 23.3027 29.3334 30.6667C29.3334 38.0306 23.364 44 16 44C8.63936 43.9922 2.67452 38.0273 2.66671 30.6667ZM2.66671 49.3333C2.66671 48.597 3.26371 48 4.00004 48H28C28.7364 48 29.3334 48.597 29.3334 49.3333V52C29.3334 52.7363 28.7364 53.3333 28 53.3333V50.6667H25.3334V53.3333H22.6667V50.6667H20V53.3333H17.3334V50.6667H14.6667V53.3333H12V50.6667H9.33337V53.3333H6.66671V50.6667H4.00004V53.3333C3.26371 53.3333 2.66671 52.7363 2.66671 52V49.3333ZM2.66671 60V57.3333C2.66671 56.597 3.26371 56 4.00004 56H28C28.7364 56 29.3334 56.597 29.3334 57.3333V60C29.3334 60.7363 28.7364 61.3333 28 61.3333V58.6667H25.3334V61.3333H22.6667V58.6667H20V61.3333H17.3334V58.6667H14.6667V61.3333H12V58.6667H9.33337V61.3333H6.66671V58.6667H4.00004V61.3333C3.26371 61.3333 2.66671 60.7363 2.66671 60ZM29.3334 76C29.3334 76.7363 28.7364 77.3333 28 77.3333V74.6667H25.3334V77.3333H22.6667V74.6667H20V77.3333H17.3334V74.6667H14.6667V77.3333H12V74.6667H9.33337V77.3333H6.66671V74.6667H4.00004V77.3333C3.26371 77.3333 2.66671 76.7363 2.66671 76V73.3333C2.66671 72.597 3.26371 72 4.00004 72H28C28.7364 72 29.3334 72.597 29.3334 73.3333V76ZM32 68C32 68.7363 31.403 69.3333 30.6667 69.3333V66.6667H28V69.3333H25.3334V66.6667H22.6667V69.3333H20V66.6667H17.3334V69.3333H14.6667V66.6667H12V69.3333H9.33337V66.6667H6.66671V69.3333C5.93038 69.3333 5.33337 68.7363 5.33337 68V65.3333C5.33337 64.597 5.93038 64 6.66671 64H30.6667C31.403 64 32 64.597 32 65.3333V68Z" fill="#3BB3C4"/>
<path d="M63.2187 0H18.6667V13.3333H21.3333V2.66667H61.3333V18.6667H77.3333V77.3333H34.6667V80H80V16.7812L63.2187 0ZM64 4.55208L75.4479 16H64V4.55208Z" fill="#3BB3C4"/>
<path d="M70.6667 66.6667V44H62.6667V66.6667H60V49.3333H52V66.6667H49.3333V54.6667H41.3333V66.6667H38.6667V69.3333H73.3333V66.6667H70.6667ZM44 66.6667V57.3333H46.6667V66.6667H44ZM65.3333 46.6667H68V66.6667H65.3333V46.6667ZM54.6667 52H57.3333V66.6667H54.6667V52Z" fill="#3BB3C4"/>
<path d="M60 30.6666V33.3333H64.7813L57.3333 40.7812L52 35.4479L41.724 45.7239L43.6094 47.6093L52 39.2187L57.3333 44.552L66.6667 35.2187V40H69.3333V30.6666H60Z" fill="#3BB3C4"/>
<path d="M34.6667 10.6666H37.3333V13.3333H34.6667V10.6666Z" fill="#3BB3C4"/>
<path d="M40 10.6666H56V13.3333H40V10.6666Z" fill="#3BB3C4"/>
<path d="M34.6667 16H37.3333V18.6667H34.6667V16Z" fill="#3BB3C4"/>
<path d="M40 16H56V18.6667H40V16Z" fill="#3BB3C4"/>
<path d="M34.6667 21.3334H37.3333V24H34.6667V21.3334Z" fill="#3BB3C4"/>
<path d="M40 21.3334H56V24H40V21.3334Z" fill="#3BB3C4"/>
</g>
<defs>
<clipPath id="clip0">
<rect width="80" height="80" fill="white"/>
</clipPath>
</defs>
</svg>
