<svg width="80" height="80" viewBox="0 0 80 80" fill="none" xmlns="http://www.w3.org/2000/svg">
<g clip-path="url(#clip0)">
<path d="M77.0093 55.8218C75.9052 55.0719 74.601 54.6716 73.2662 54.6727C71.9942 54.6749 70.7501 55.0444 69.6832 55.7371L63.9528 50.1225V40.0374H66.6138C73.2432 40.1101 78.9021 35.2635 79.8494 28.7017C80.9472 21.4199 75.934 14.6267 68.6521 13.5289C67.995 13.4298 67.3316 13.3801 66.667 13.3799C64.4609 13.3753 62.2889 13.9243 60.3499 14.9765C57.5153 6.12015 49.3027 0.0945683 40.0041 0.0485004C32.3818 0.0340314 25.3359 4.10447 21.541 10.715C15.6279 10.629 10.7646 15.3527 10.6787 21.2659C10.6782 21.3026 10.6778 21.3394 10.6777 21.3761V21.4666C7.561 21.0187 4.42755 22.1639 2.3342 24.5161C1.4353 25.5096 0.774712 26.6949 0.402344 27.982C-1.09129 32.9239 1.70405 38.141 6.64596 39.6346C7.04161 39.7542 7.44492 39.8475 7.85304 39.9137C8.36578 39.9949 8.884 40.0361 9.40305 40.0374H16.0555V50.1225L10.3251 55.7371C7.24035 53.778 3.15162 54.6905 1.19265 57.7753C-0.766484 60.86 0.14606 64.9487 3.23078 66.9077C6.3155 68.8668 10.4042 67.9543 12.3632 64.8695C13.7818 62.636 13.7331 59.772 12.2396 57.5878L18.3173 51.6313C18.5726 51.3811 18.7164 51.0387 18.7164 50.6813V40.0374H28.0298V66.7801C24.43 67.5149 22.1075 71.0288 22.8422 74.6286C23.577 78.2284 27.091 80.5509 30.6908 79.8162C34.2905 79.0814 36.6131 75.5674 35.8783 71.9677C35.3449 69.3551 33.3033 67.3135 30.6908 66.7801V40.0374H49.3175V66.7801C45.7177 67.5149 43.3952 71.0288 44.13 74.6286C44.8647 78.2284 48.3787 80.5509 51.9785 79.8162C55.5783 79.0814 57.9008 75.5674 57.166 71.9677C56.6327 69.3551 54.591 67.3135 51.9785 66.7801V40.0374H61.2918V50.6813C61.2918 51.0387 61.4357 51.3811 61.691 51.6313L67.7686 57.5878C65.7045 60.6273 66.4952 64.7644 69.5347 66.8285C72.5742 68.8926 76.7113 68.102 78.7754 65.0625C80.8393 62.023 80.0486 57.8859 77.0093 55.8218ZM6.74209 65.3166C4.53765 65.3166 2.75064 63.5296 2.75064 61.3251C2.75064 59.1207 4.53765 57.3337 6.74209 57.3337C8.94653 57.3337 10.7335 59.1207 10.7335 61.3251C10.7335 63.5296 8.94636 65.3166 6.74209 65.3166ZM33.3517 73.2995C33.3517 75.5039 31.5647 77.2909 29.3603 77.2909C27.1558 77.2909 25.3688 75.5039 25.3688 73.2995C25.3688 71.095 27.1558 69.308 29.3603 69.308C31.5647 69.308 33.3517 71.095 33.3517 73.2995ZM54.6394 73.2995C54.6394 75.5039 52.8524 77.2909 50.648 77.2909C48.4435 77.2909 46.6565 75.5039 46.6565 73.2995C46.6565 71.095 48.4435 69.308 50.648 69.308C52.8524 69.308 54.6394 71.095 54.6394 73.2995ZM9.40305 37.3765C9.02486 37.3755 8.64717 37.3457 8.27347 37.2873C6.38984 36.981 4.72741 35.8832 3.70593 34.2711C2.664 32.6162 2.39175 30.5904 2.95953 28.719C3.21714 27.8235 3.67633 26.9989 4.30199 26.3082C5.5696 24.8655 7.39735 24.0387 9.3179 24.0397C10.1368 24.0361 10.9491 24.1859 11.7128 24.4815C12.3963 24.7509 13.169 24.4153 13.4384 23.7316C13.5325 23.4929 13.5555 23.2321 13.5049 22.9807C13.3985 22.4525 13.3446 21.915 13.3439 21.3761C13.3483 16.9588 16.9281 13.3789 21.3455 13.3746C21.6051 13.3719 21.8647 13.3861 22.1225 13.4172C22.6769 13.4804 23.2146 13.2023 23.4835 12.7134C28.2726 3.58642 39.5539 0.0699539 48.6807 4.85919C53.5498 7.41421 57.0444 11.9864 58.2316 17.3554C58.3896 18.073 59.0994 18.5267 59.817 18.3687C60.0011 18.3281 60.1746 18.249 60.3257 18.1364C62.155 16.7693 64.3792 16.0339 66.6628 16.0409C72.5545 16.0545 77.3196 20.8416 77.306 26.7333C77.2924 32.625 72.5053 37.3901 66.6136 37.3765H9.40305ZM73.2662 65.3166C71.0617 65.3166 69.2747 63.5296 69.2747 61.3251C69.2747 59.1207 71.0617 57.3337 73.2662 57.3337C75.4706 57.3337 77.2576 59.1207 77.2576 61.3251C77.2576 63.5296 75.4705 65.3166 73.2662 65.3166Z" fill="#3BB3C4"/>
</g>
<defs>
<clipPath id="clip0">
<rect width="80" height="80" fill="white"/>
</clipPath>
</defs>
</svg>
