<svg width="137" height="137" viewBox="0 0 137 137" fill="none" xmlns="http://www.w3.org/2000/svg">
<path d="M68.5 11.4167C37.0242 11.4167 11.4167 37.0243 11.4167 68.5C11.4167 99.9758 37.0242 125.583 68.5 125.583C99.9757 125.583 125.583 99.9758 125.583 68.5C125.583 37.0243 99.9757 11.4167 68.5 11.4167ZM68.5 114.167C43.3205 114.167 22.8333 93.6795 22.8333 68.5C22.8333 43.3206 43.3205 22.8334 68.5 22.8334C93.6795 22.8334 114.167 43.3206 114.167 68.5C114.167 93.6795 93.6795 114.167 68.5 114.167Z" fill="#3BB3C4"/>
<path d="M57.0833 91.3333L91.3333 68.5L57.0833 45.6667V91.3333Z" fill="#3BB3C4"/>
</svg>
