<svg width="51" height="80" viewBox="0 0 51 80" fill="none" xmlns="http://www.w3.org/2000/svg">
<path fill-rule="evenodd" clip-rule="evenodd" d="M49.3747 7H15.2955C15.2807 7 15.2664 7.00153 15.2516 7.00204C15.2367 7.00256 15.2219 7.00358 15.2071 7.0046C15.1519 7.00818 15.0967 7.01431 15.0425 7.02505C15.0415 7.02505 15.0405 7.02505 15.0394 7.02556C14.9842 7.03629 14.9305 7.05214 14.8774 7.07003C14.8636 7.07463 14.8498 7.07974 14.8365 7.08485C14.7864 7.10377 14.7368 7.12473 14.6893 7.14926C14.6862 7.1508 14.6837 7.15182 14.6806 7.15386C14.6305 7.18044 14.583 7.21111 14.5369 7.24383C14.5252 7.25252 14.5139 7.2607 14.5022 7.26939C14.4562 7.30466 14.4117 7.34197 14.3703 7.38338L0.758377 20.9948C0.716972 21.0362 0.680168 21.0807 0.644897 21.1267C0.636208 21.1384 0.627518 21.1502 0.618828 21.1619C0.586113 21.2085 0.555443 21.2555 0.528862 21.3056C0.526817 21.3087 0.525795 21.3117 0.524261 21.3148C0.499214 21.3623 0.478256 21.4114 0.459854 21.4615C0.454742 21.4748 0.449631 21.4886 0.44503 21.5024C0.427139 21.5555 0.411293 21.6092 0.400558 21.6644C0.400047 21.6655 0.400047 21.6665 0.400047 21.6675C0.389313 21.7217 0.383179 21.7764 0.379601 21.8321C0.378578 21.8469 0.377556 21.8612 0.377045 21.8766C0.376534 21.8909 0.375 21.9057 0.375 21.9205V72.6914C0.375 73.4142 0.9608 74 1.68359 74H49.3742C50.097 74 50.6828 73.4142 50.6828 72.6914V8.30859C50.6833 7.5858 50.0975 7 49.3747 7ZM13.9869 11.4681V20.6119H4.84313L13.9869 11.4681ZM48.0661 71.3828H2.99219V23.2291H15.2955C16.0183 23.2291 16.6041 22.6428 16.6041 21.9205V9.61719H48.0661V71.3828Z" fill="#0F2B3D"/>
<path fill-rule="evenodd" clip-rule="evenodd" d="M20.3086 30.1135C19.5858 30.1135 19 30.6993 19 31.4221C19 32.1444 19.5858 32.7307 20.3086 32.7307H30.7405C31.4633 32.7307 32.0491 32.1444 32.0491 31.4221C32.0491 30.6993 31.4633 30.1135 30.7405 30.1135H20.3086Z" fill="#0F2B3D"/>
<path fill-rule="evenodd" clip-rule="evenodd" d="M14 37.1799C14 37.9027 14.5858 38.4885 15.3086 38.4885H36.3401C37.0629 38.4885 37.6487 37.9027 37.6487 37.1799C37.6487 36.4576 37.0629 35.8713 36.3401 35.8713H15.3086C14.5858 35.8713 14 36.4571 14 37.1799Z" fill="#0F2B3D"/>
<path fill-rule="evenodd" clip-rule="evenodd" d="M36.3401 41.6296H15.3086C14.5858 41.6296 14 42.2154 14 42.9382C14 43.661 14.5858 44.2468 15.3086 44.2468H36.3401C37.0629 44.2468 37.6487 43.661 37.6487 42.9382C37.6487 42.2154 37.0629 41.6296 36.3401 41.6296Z" fill="#0F2B3D"/>
<path fill-rule="evenodd" clip-rule="evenodd" d="M36.3401 47.3882H15.3086C14.5858 47.3882 14 47.974 14 48.6968C14 49.4191 14.5858 50.0054 15.3086 50.0054H36.3401C37.0629 50.0054 37.6487 49.4191 37.6487 48.6968C37.6487 47.974 37.0629 47.3882 36.3401 47.3882Z" fill="#0F2B3D"/>
<path fill-rule="evenodd" clip-rule="evenodd" d="M36.3401 53.1465H15.3086C14.5858 53.1465 14 53.7323 14 54.4551C14 55.1774 14.5858 55.7637 15.3086 55.7637H36.3401C37.0629 55.7637 37.6487 55.1774 37.6487 54.4551C37.6487 53.7323 37.0629 53.1465 36.3401 53.1465Z" fill="#0F2B3D"/>
<path fill-rule="evenodd" clip-rule="evenodd" d="M25.3086 59C24.5878 59 24 59.5878 24 60.3086C24 61.0293 24.5878 61.6172 25.3086 61.6172C26.0293 61.6172 26.6172 61.0293 26.6172 60.3086C26.6172 59.5878 26.0293 59 25.3086 59Z" fill="#0F2B3D"/>
</svg>
