<svg width="70" height="70" viewBox="0 0 70 70" fill="none" xmlns="http://www.w3.org/2000/svg">
<path fill-rule="evenodd" clip-rule="evenodd" d="M59.9437 29.2605C59.1891 29.2605 58.5765 29.8725 58.5765 30.6277V67.2656H11.4844V64.5307C11.4844 63.7761 10.8723 63.1635 10.1172 63.1635C9.36203 63.1635 8.75 63.7761 8.75 64.5307V68.6328C8.75 69.388 9.36203 70 10.1172 70H59.9437C60.6989 70 61.3109 69.388 61.3109 68.6328V30.6277C61.3109 29.8725 60.6989 29.2605 59.9437 29.2605Z" fill="#0F2B3D"/>
<path fill-rule="evenodd" clip-rule="evenodd" d="M61.3087 15.5416C61.3082 15.5267 61.3077 15.5122 61.3066 15.4967C61.3023 15.438 61.2965 15.3793 61.2847 15.3221C61.273 15.2639 61.2564 15.2073 61.2377 15.1512C61.2329 15.1373 61.2281 15.1234 61.2228 15.1096C61.203 15.0567 61.1806 15.0043 61.1544 14.9547C61.1533 14.952 61.1523 14.9488 61.1507 14.9461C61.1229 14.8938 61.0909 14.8441 61.0561 14.7955C61.0476 14.7838 61.0385 14.7715 61.0294 14.7598C60.9926 14.7117 60.9541 14.6647 60.9109 14.6214L46.6889 0.400543C46.6462 0.357285 46.5997 0.318832 46.5517 0.281982C46.5394 0.272369 46.5271 0.26329 46.5143 0.254211C46.4662 0.220032 46.4171 0.188522 46.3658 0.160751C46.3615 0.158081 46.3567 0.157013 46.3525 0.154877C46.3044 0.129242 46.2542 0.10788 46.2029 0.0886536C46.1885 0.083313 46.1736 0.0779723 46.1581 0.0726318C46.1036 0.0539398 46.0475 0.0379181 45.9904 0.0261688C45.9882 0.0261688 45.9861 0.0261688 45.9845 0.0256348C45.929 0.0144196 45.8723 0.00854492 45.8152 0.00427246C45.7997 0.00320435 45.7837 0.00267028 45.7677 0.00213623C45.7527 0.00160218 45.7378 0 45.7223 0H10.1172C9.36203 0 8.75 0.61203 8.75 1.36719V53.5932C8.75 54.3484 9.36203 54.9604 10.1172 54.9604C10.8723 54.9604 11.4844 54.3484 11.4844 53.5932V2.73438H44.3551V15.5886C44.3551 16.3438 44.9677 16.9558 45.7223 16.9558H58.5765V19.6902C58.5765 20.4453 59.1891 21.0574 59.9437 21.0574C60.6989 21.0574 61.3109 20.4453 61.3109 19.6902V15.5886C61.3109 15.5726 61.3093 15.5571 61.3087 15.5416ZM47.0895 4.6682L56.6432 14.2214H47.0895V4.6682Z" fill="#0F2B3D"/>
<path fill-rule="evenodd" clip-rule="evenodd" d="M30.2277 57.2691C30.5775 57.2691 30.9273 57.1356 31.1943 56.8686L53.3801 34.6828C53.9142 34.1487 53.9142 33.2835 53.3801 32.7495L47.4345 26.8038C47.1781 26.5475 46.8304 26.4033 46.4678 26.4033C46.1052 26.4033 45.7575 26.5475 45.5012 26.8038L30.2277 42.0779L24.5597 36.4099C24.0257 35.8764 23.1605 35.8759 22.6259 36.4099L16.6808 42.3556C16.1467 42.8891 16.1467 43.7548 16.6808 44.2889L29.2605 56.8686C29.5275 57.1356 29.8773 57.2691 30.2277 57.2691ZM23.5931 39.3104L29.2605 44.9778C29.7945 45.5119 30.6602 45.5119 31.1943 44.9778L46.4678 29.7043L50.4802 33.7161L30.2277 53.9687L19.5812 43.3222L23.5931 39.3104Z" fill="#0F2B3D"/>
<path fill-rule="evenodd" clip-rule="evenodd" d="M10.1172 60.4292C10.8702 60.4292 11.4844 59.8155 11.4844 59.062C11.4844 58.3089 10.8702 57.6948 10.1172 57.6948C9.36417 57.6948 8.75 58.3089 8.75 59.062C8.75 59.8155 9.36417 60.4292 10.1172 60.4292Z" fill="#0F2B3D"/>
<path fill-rule="evenodd" clip-rule="evenodd" d="M59.9437 23.7917C59.1907 23.7917 58.5765 24.4059 58.5765 25.1589C58.5765 25.9119 59.1907 26.5261 59.9437 26.5261C60.6967 26.5261 61.3109 25.9119 61.3109 25.1589C61.3109 24.4059 60.6967 23.7917 59.9437 23.7917Z" fill="#0F2B3D"/>
</svg>
