<svg width="30" height="30" viewBox="0 0 30 30" fill="none" xmlns="http://www.w3.org/2000/svg">
<path d="M28.5 25.5V4.5C28.5 2.85 27.1455 1.5 25.4925 1.5H4.5075C2.7825 1.5 1.5 2.7795 1.5 4.5V25.5C1.5 27.222 2.7825 28.5 4.5075 28.5H25.4925C27.1455 28.5 28.5 27.1515 28.5 25.5ZM22.776 17.4105C22.776 17.4105 24.474 19.086 24.8925 19.863C24.9045 19.8795 24.909 19.8945 24.9135 19.9005C25.083 20.1855 25.1265 20.4105 25.041 20.5755C24.9 20.85 24.42 20.988 24.2565 21C24.2565 21 21.342 21 21.258 21C21.048 21 20.613 20.946 20.085 20.5815C19.68 20.2995 19.2795 19.833 18.8895 19.3785C18.3075 18.7035 17.8035 18.1185 17.2965 18.1185C17.232 18.1185 17.1675 18.129 17.1075 18.15C16.722 18.273 16.233 18.8205 16.233 20.283C16.233 20.7405 15.873 21.0015 15.618 21.0015C15.618 21.0015 14.31 21.0015 14.244 21.0015C13.776 21.0015 11.3385 20.838 9.18 18.5595C6.531 15.7695 4.152 10.173 4.131 10.1235C3.981 9.762 4.2915 9.5655 4.629 9.5655H7.659C8.0655 9.5655 8.196 9.8115 8.289 10.032C8.394 10.2825 8.79 11.2935 9.438 12.4305C10.4925 14.28 11.142 15.033 11.6595 15.033C11.7555 15.033 11.8485 15.0075 11.9355 14.9595C12.612 14.586 12.486 12.174 12.456 11.676C12.456 11.5815 12.4545 10.5975 12.1095 10.125C11.8605 9.783 11.439 9.6525 11.184 9.603C11.2515 9.5055 11.397 9.354 11.583 9.264C12.0465 9.033 12.882 9 13.713 9H14.175C15.0765 9.012 15.3105 9.0705 15.636 9.153C16.2945 9.3105 16.308 9.738 16.2495 11.193C16.233 11.607 16.215 12.0765 16.215 12.627C16.215 12.7455 16.2105 12.876 16.2105 13.011C16.1895 13.755 16.1655 14.5965 16.6905 14.9415C16.7595 14.9835 16.836 15.0075 16.917 15.0075C17.1 15.0075 17.6475 15.0075 19.131 12.462C19.7835 11.3385 20.286 10.0125 20.3205 9.9135C20.3505 9.8595 20.439 9.7005 20.5425 9.639C20.6265 9.5895 20.7345 9.5805 20.7915 9.5805H24.354C24.744 9.5805 25.008 9.639 25.0575 9.7875C25.143 10.026 25.041 10.7535 23.4135 12.9525C23.1375 13.317 22.899 13.635 22.689 13.9125C21.213 15.8445 21.213 15.9435 22.776 17.4105Z" fill="#F2F2F2"/>
</svg>
