<svg width="70" height="70" viewBox="0 0 70 70" fill="none" xmlns="http://www.w3.org/2000/svg">
<path fill-rule="evenodd" clip-rule="evenodd" d="M64.5196 40.7021C63.7858 40.5248 63.0472 40.9766 62.8699 41.7104C59.7553 54.617 48.295 63.6314 35.0001 63.6314C20.2377 63.6314 8.0468 52.4156 6.49696 38.0585L8.30742 39.5966C8.8826 40.0853 9.74563 40.0153 10.2348 39.4396C10.7235 38.8644 10.6535 38.0014 10.0778 37.5127L5.84702 33.918C5.84435 33.9159 5.84167 33.9143 5.839 33.9121C5.81924 33.8956 5.79842 33.8801 5.77759 33.8646C5.76317 33.8539 5.74875 33.8422 5.7338 33.832C5.7103 33.8155 5.6852 33.801 5.6601 33.7861C5.64728 33.7786 5.63446 33.7701 5.62164 33.7626C5.59387 33.7471 5.56503 33.7337 5.53619 33.7204C5.52498 33.7156 5.5143 33.7092 5.50255 33.7044C5.47371 33.6916 5.44434 33.6814 5.41443 33.6713C5.40215 33.667 5.38986 33.6617 5.37758 33.6574C5.35141 33.6488 5.32471 33.643 5.298 33.636C5.28091 33.6317 5.26382 33.6264 5.2462 33.6227C5.22484 33.6184 5.20241 33.6152 5.18051 33.612C5.15755 33.6082 5.13458 33.6034 5.11108 33.6013C5.09186 33.5992 5.07317 33.5986 5.05394 33.5976C5.02724 33.5954 5.00053 33.5938 4.9733 33.5933C4.96956 33.5933 4.96582 33.5928 4.96208 33.5928C4.94446 33.5928 4.92737 33.5949 4.90974 33.5954C4.89052 33.5965 4.87076 33.596 4.851 33.5976C4.84673 33.5981 4.84245 33.5986 4.83818 33.5992C4.81255 33.6018 4.78745 33.6056 4.76181 33.6093C4.74312 33.612 4.72389 33.6141 4.7052 33.6179C4.67743 33.6232 4.65073 33.6301 4.62349 33.6371C4.60747 33.6408 4.59091 33.6446 4.57542 33.6494C4.54765 33.6574 4.52042 33.6675 4.49318 33.6771C4.47823 33.6825 4.46381 33.6873 4.44939 33.6932C4.42268 33.7038 4.39705 33.7161 4.37195 33.7284C4.357 33.7354 4.34204 33.7418 4.32762 33.7498C4.30412 33.7621 4.28116 33.7754 4.25819 33.7893C4.24271 33.7989 4.22668 33.808 4.21173 33.8176C4.19144 33.8315 4.17168 33.8459 4.15138 33.8609C4.13536 33.8726 4.11934 33.8838 4.10385 33.8966C4.08516 33.9111 4.06807 33.9271 4.05045 33.9431C4.03496 33.957 4.01894 33.9703 4.00398 33.9853C3.98689 34.0018 3.97141 34.02 3.95485 34.0376C3.94363 34.0499 3.93082 34.0617 3.92014 34.075L0.325395 38.3058C-0.163267 38.881 -0.093306 39.744 0.481874 40.2332C0.73929 40.4517 1.05385 40.5585 1.36681 40.5585C1.754 40.5585 2.13905 40.3945 2.40929 40.0762L3.78769 38.4538C4.56528 45.5209 7.69272 52.0669 12.793 57.1671C18.7247 63.0989 26.6112 66.3657 35.0001 66.3657C42.1912 66.3657 48.9572 63.9999 54.5675 59.525C60.0111 55.1826 63.9033 49.0836 65.5279 42.3518C65.7052 41.6175 65.2534 40.8789 64.5196 40.7021Z" fill="#0F2B3D"/>
<path fill-rule="evenodd" clip-rule="evenodd" d="M69.5183 29.6872C68.9426 29.1985 68.08 29.2685 67.5909 29.8437L66.2119 31.4667C65.4349 24.3995 62.3074 17.8535 57.2066 12.7528C51.2754 6.82152 43.3884 3.55469 35 3.55469C27.8089 3.55469 21.0424 5.92003 15.4327 10.3954C9.98901 14.7379 6.09627 20.8368 4.4722 27.5686C4.29489 28.3024 4.74617 29.041 5.47996 29.2178C6.21376 29.3956 6.95289 28.9438 7.12967 28.2095C10.2443 15.3029 21.7052 6.28906 35 6.28906C49.7624 6.28906 61.9533 17.5043 63.5026 31.8619L61.6922 30.3238C61.117 29.8351 60.2545 29.9051 59.7653 30.4803C59.2766 31.056 59.3466 31.9185 59.9218 32.4077L64.1526 36.0019C64.1553 36.0046 64.1585 36.0062 64.1611 36.0083C64.175 36.0201 64.19 36.0307 64.2044 36.0419C64.2242 36.0574 64.2434 36.0724 64.2637 36.0863C64.2781 36.0964 64.293 36.1055 64.308 36.1151C64.3294 36.1285 64.3507 36.1418 64.3726 36.1541C64.3876 36.1621 64.4031 36.1701 64.4186 36.1781C64.4415 36.1893 64.4639 36.2006 64.4869 36.2107C64.5029 36.2177 64.519 36.2241 64.5355 36.2305C64.559 36.2401 64.5825 36.2486 64.606 36.2566C64.6231 36.262 64.6397 36.2673 64.6567 36.2721C64.6813 36.2796 64.7059 36.2855 64.731 36.2914C64.7475 36.2951 64.7641 36.2988 64.7812 36.302C64.8089 36.3074 64.8367 36.3116 64.865 36.3148C64.8794 36.317 64.8933 36.3191 64.9077 36.3207C64.951 36.3245 64.9943 36.3271 65.037 36.3271H65.0375H65.0381C65.0861 36.3271 65.1342 36.3245 65.1812 36.3197C65.186 36.3191 65.1903 36.3181 65.1945 36.3175C65.2378 36.3127 65.2805 36.3058 65.3222 36.2972C65.3318 36.2951 65.3409 36.2919 65.3505 36.2897C65.3868 36.2812 65.4226 36.2721 65.4578 36.2609C65.4722 36.2561 65.4861 36.2502 65.5 36.2454C65.5299 36.2347 65.5588 36.2241 65.5876 36.2112C65.6052 36.2038 65.6218 36.1952 65.6389 36.1867C65.6634 36.1744 65.688 36.1621 65.7115 36.1488C65.7297 36.1386 65.7478 36.1274 65.7654 36.1162C65.7873 36.1023 65.8087 36.0884 65.8295 36.0735C65.8472 36.0606 65.8648 36.0478 65.8819 36.0345C65.9027 36.0179 65.923 36.0008 65.9433 35.9827C65.9582 35.9693 65.9732 35.9565 65.9876 35.9421C66.0111 35.9196 66.033 35.8961 66.0544 35.8721C66.0629 35.863 66.072 35.8545 66.08 35.8454L69.6747 31.6146C70.1634 31.0389 70.0934 30.1759 69.5183 29.6872Z" fill="#0F2B3D"/>
<path fill-rule="evenodd" clip-rule="evenodd" d="M19.5278 54.0012C19.5278 54.7564 20.1403 55.3684 20.895 55.3684H29.5312C30.2864 55.3684 30.8984 54.7564 30.8984 54.0012C30.8984 53.2461 30.2864 52.634 29.5312 52.634H22.2621V25.3373H28.9469C29.7016 25.3373 30.3141 24.7253 30.3141 23.9701V17.2858H47.7372V52.634H40.4687C39.7141 52.634 39.1015 53.2461 39.1015 54.0012C39.1015 54.7564 39.7141 55.3684 40.4687 55.3684H49.1044C49.8596 55.3684 50.4716 54.7564 50.4716 54.0012V15.9187C50.4716 15.164 49.8596 14.5515 49.1044 14.5515H28.9469C28.9315 14.5515 28.916 14.5536 28.9005 14.5541C28.885 14.5547 28.87 14.5552 28.8546 14.5563C28.7963 14.56 28.7392 14.5664 28.6826 14.5776C28.6815 14.5776 28.6804 14.5776 28.6794 14.5782C28.6217 14.5899 28.5656 14.6059 28.5101 14.6246C28.4957 14.63 28.4812 14.6348 28.4668 14.6401C28.415 14.6599 28.3643 14.6818 28.3157 14.7069C28.3119 14.709 28.3077 14.7101 28.3039 14.7122C28.2521 14.74 28.203 14.772 28.1549 14.8062C28.1421 14.8153 28.1298 14.8244 28.1176 14.834C28.0695 14.8703 28.023 14.9093 27.9803 14.952L19.9288 23.0035C19.8856 23.0467 19.8466 23.0932 19.8103 23.1413C19.8007 23.1535 19.7916 23.1658 19.7831 23.1781C19.7489 23.2267 19.7163 23.2758 19.6885 23.3282C19.6869 23.3308 19.6859 23.334 19.6848 23.3367C19.6586 23.3869 19.6362 23.4387 19.6164 23.4911C19.6116 23.5049 19.6063 23.5188 19.6015 23.5332C19.5828 23.5888 19.5662 23.6454 19.5545 23.7036V23.7041C19.5433 23.7618 19.5369 23.82 19.5331 23.8788C19.532 23.8937 19.531 23.9087 19.5304 23.9236C19.5299 23.9391 19.5283 23.9546 19.5283 23.9706V54.0012H19.5278ZM27.5798 22.6029H24.196L27.5798 19.2197V22.6029Z" fill="#0F2B3D"/>
<path fill-rule="evenodd" clip-rule="evenodd" d="M33.6328 54.0012C33.6328 54.7543 34.2469 55.3684 34.9999 55.3684C35.753 55.3684 36.3671 54.7543 36.3671 54.0012C36.3671 53.2482 35.753 52.634 34.9999 52.634C34.2469 52.634 33.6328 53.2482 33.6328 54.0012Z" fill="#0F2B3D"/>
</svg>
