<svg width="80" height="80" viewBox="0 0 80 80" fill="none" xmlns="http://www.w3.org/2000/svg">
<g clip-path="url(#clip0)">
<path d="M78.666 46.667H74.5767L71.9995 9.24316C71.9512 8.54248 71.3687 7.99951 70.666 8.00049H62.666C61.9634 7.99951 61.3809 8.54248 61.3325 9.24316L58.7554 46.667H56V38.667C56 37.9311 55.4028 37.3335 54.667 37.3335C54.3633 37.333 54.0693 37.4365 53.833 37.626L42.6665 46.5591V38.667C42.6665 37.9311 42.0698 37.3335 41.3335 37.3335C41.0303 37.333 40.7363 37.4365 40.5 37.626L29.3335 46.5591V38.667C29.3335 37.9311 28.7368 37.3335 28.0005 37.3335C27.6973 37.333 27.4028 37.4365 27.167 37.626L16.0005 46.5591V38.667C16 37.9311 15.4028 37.334 14.667 37.334C14.4243 37.334 14.1875 37.3999 13.98 37.5244L0.646484 45.5244C0.245605 45.7656 0 46.1987 0 46.667V78.6669C0 79.4033 0.597168 80 1.3335 80H78.666C79.4023 80 79.9995 79.4033 79.9995 78.6669V48.0005C79.9995 47.2636 79.4023 46.667 78.666 46.667ZM63.9111 10.667H69.4209L71.9043 46.667H61.4277L63.9111 10.667ZM45.3325 77.3335V61.3335H53.3325V77.3335H45.3325ZM77.333 77.3335H56V60C56 59.2641 55.4023 58.667 54.666 58.667H43.9995C43.2632 58.667 42.666 59.2641 42.666 60V77.3335H2.6665V47.4218L13.333 41.0219V49.3335C13.333 50.0703 13.9297 50.667 14.666 50.6679C14.9688 50.6679 15.2632 50.5644 15.5 50.375L26.6665 41.4419V49.3335C26.6665 50.0703 27.2627 50.667 27.9995 50.6679C28.3022 50.6679 28.5962 50.5644 28.833 50.3755L39.9995 41.4424V49.334C39.9995 50.0703 40.5957 50.6679 41.3325 50.6679C41.6353 50.6679 41.9292 50.5644 42.166 50.3755L53.3325 41.4424V48.0005C53.3325 48.7373 53.9297 49.334 54.666 49.334H77.332V77.3335H77.333Z" fill="#3BB3C4"/>
<path d="M45.3237 2.66742C45.8085 2.92719 46.2465 3.26605 46.6201 3.66986C47.3676 4.58148 48.4321 5.17523 49.5996 5.33392C50.8295 5.17718 51.9526 4.55756 52.7412 3.60053C53.0786 3.24652 53.456 2.93353 53.8666 2.66742C54.1411 2.67963 54.8598 3.35248 55.2465 3.71381C55.9658 4.60394 56.999 5.18353 58.1328 5.33392C59.4423 5.16791 60.6391 4.51117 61.4824 3.49652C61.809 3.18988 62.3037 2.72455 62.3994 2.66742C63.1152 2.66742 63.2792 2.90472 63.7197 3.53949C64.2983 4.63275 65.4291 5.32172 66.6665 5.33392C67.4023 5.33392 67.9995 4.73676 67.9995 4.00092C67.9995 3.2641 67.4023 2.66742 66.6665 2.66742C66.3994 2.66742 66.3476 2.64887 65.9145 2.02338C65.2065 0.751406 63.8544 -0.026426 62.3994 0.000429514C61.3207 0.150332 60.3393 0.705019 59.6557 1.55267C59.2128 1.97016 58.4707 2.66742 58.1889 2.67377C57.7758 2.42377 57.3989 2.11908 57.0659 1.76898C56.2641 0.792421 55.1196 0.160097 53.8662 0.000429514C52.7104 0.158144 51.6577 0.747011 50.9179 1.64838C50.5439 2.04974 50.1118 2.39301 49.6367 2.66742C49.1923 2.41254 48.788 2.09418 48.437 1.72064C47.6577 0.774355 46.5483 0.160097 45.3325 0.000429514C44.5966 -0.00201189 43.997 0.592714 43.9946 1.32953C43.9921 2.06537 44.5873 2.66498 45.3237 2.66742Z" fill="#3BB3C4"/>
<path d="M14.667 61.3335H9.33301C8.59668 61.3335 8 61.9307 8 62.6665V70.6665C8 71.4033 8.59668 72 9.33301 72H14.667C15.4028 72 16 71.4033 16 70.6665V62.6665C16 61.9307 15.4028 61.3335 14.667 61.3335ZM13.333 69.3335H10.6665V64.0005H13.333V69.3335Z" fill="#3BB3C4"/>
<path d="M25.3335 61.3335H20C19.2632 61.3335 18.6665 61.9307 18.6665 62.6665V70.6665C18.6665 71.4033 19.2632 72 20 72H25.3335C26.0693 72 26.6665 71.4033 26.6665 70.6665V62.6665C26.6665 61.9307 26.0693 61.3335 25.3335 61.3335ZM23.9995 69.3335H21.333V64.0005H23.9995V69.3335Z" fill="#3BB3C4"/>
<path d="M36 61.3335H30.6665C29.9297 61.3335 29.333 61.9307 29.333 62.6665V70.6665C29.333 71.4033 29.9297 72 30.6665 72H36C36.7358 72 37.333 71.4033 37.333 70.6665V62.6665C37.333 61.9307 36.7358 61.3335 36 61.3335ZM34.666 69.3335H31.9995V64.0005H34.666V69.3335Z" fill="#3BB3C4"/>
</g>
<defs>
<clipPath id="clip0">
<rect width="80" height="80" fill="white"/>
</clipPath>
</defs>
</svg>
