<svg width="70" height="70" viewBox="0 0 70 70" fill="none" xmlns="http://www.w3.org/2000/svg">
<path fill-rule="evenodd" clip-rule="evenodd" d="M62.7566 8.75H7.24342C3.24921 8.75 0 11.9992 0 15.9934V53.8773C0 57.871 3.24921 61.1208 7.24342 61.1208H29.5312C30.2864 61.1208 30.8984 60.5082 30.8984 59.7536C30.8984 58.9984 30.2864 58.3864 29.5312 58.3864H7.24342C4.75685 58.3864 2.73438 56.3634 2.73438 53.8773V40.6092C2.77122 40.6386 2.80861 40.6664 2.84599 40.6947C2.87697 40.7182 2.90741 40.7427 2.93892 40.7657C3.00674 40.8164 3.07617 40.865 3.14613 40.9131C3.16536 40.9264 3.18459 40.9409 3.20435 40.9542C3.2946 41.0151 3.38593 41.0738 3.47885 41.1304C3.50235 41.1449 3.52692 41.1582 3.55042 41.1721C3.62091 41.2138 3.69087 41.2549 3.76244 41.2944C3.79662 41.3131 3.8308 41.3307 3.86497 41.3489C3.92799 41.3825 3.99155 41.4151 4.05563 41.4466C4.09302 41.4648 4.1304 41.4829 4.16779 41.5005C4.2308 41.5305 4.29489 41.5588 4.35898 41.5871C4.39636 41.6036 4.43428 41.6202 4.47273 41.6357C4.54056 41.664 4.60999 41.6907 4.67941 41.7174C4.71306 41.7302 4.74724 41.7435 4.78142 41.7564C4.87274 41.7895 4.9646 41.8204 5.05753 41.8498L5.09598 41.8626C5.20226 41.8958 5.3096 41.9257 5.41748 41.954C5.44899 41.9625 5.48103 41.9689 5.51254 41.9769C5.58945 41.9962 5.66689 42.0143 5.74486 42.0309C5.78491 42.0394 5.82603 42.0469 5.86662 42.0549C5.93712 42.0683 6.00761 42.0811 6.07918 42.0928C6.12244 42.0998 6.1657 42.1062 6.20895 42.1126C6.27998 42.1227 6.35155 42.1318 6.42311 42.1398C6.46584 42.1446 6.50856 42.15 6.55128 42.1537C6.62872 42.1612 6.70723 42.1665 6.7852 42.1713C6.82205 42.174 6.8589 42.1772 6.89575 42.1788C7.01111 42.1841 7.127 42.1879 7.24342 42.1879H20.6563C21.1834 44.5425 23.0435 46.3995 25.3998 46.9218C25.5744 46.9608 25.7517 46.9923 25.9312 47.0158C26.1111 47.0398 26.2927 47.0558 26.477 47.0638C26.5694 47.0681 26.6618 47.0697 26.7547 47.0697H43.2458C43.3388 47.0697 43.4312 47.0676 43.523 47.0638C43.7073 47.0558 43.8894 47.0398 44.0688 47.0158C44.2483 46.9923 44.4256 46.9608 44.6002 46.9218C46.9565 46.3995 48.8171 44.5425 49.3443 42.1879H62.7566C62.873 42.1879 62.9889 42.1847 63.1042 42.1788C63.1416 42.1772 63.1785 42.174 63.2153 42.1713C63.2933 42.1665 63.3718 42.1612 63.4492 42.1537C63.492 42.15 63.5347 42.1446 63.5769 42.1398C63.649 42.1318 63.72 42.1227 63.791 42.1126C63.8343 42.1062 63.8781 42.0998 63.9208 42.0928C63.9924 42.0816 64.0629 42.0683 64.1339 42.0549C64.1745 42.0469 64.2151 42.0394 64.2557 42.0309C64.3336 42.0143 64.4106 41.9962 64.488 41.9769C64.5195 41.9689 64.5515 41.9625 64.5825 41.954C64.6909 41.9257 64.7977 41.8958 64.904 41.8626C64.9174 41.8584 64.9297 41.8541 64.943 41.8498C65.0359 41.8204 65.1278 41.7895 65.2186 41.7564C65.2533 41.7435 65.2869 41.7302 65.3211 41.7174C65.3905 41.6907 65.4594 41.664 65.5278 41.6357C65.5657 41.6196 65.6036 41.6036 65.641 41.5871C65.7056 41.5588 65.7692 41.5299 65.8322 41.5005C65.8701 41.4829 65.9075 41.4648 65.9449 41.4466C66.009 41.4151 66.072 41.382 66.135 41.3489C66.1692 41.3307 66.2039 41.3131 66.2376 41.2944C66.3091 41.2549 66.3796 41.2143 66.4496 41.1721C66.4736 41.1582 66.4977 41.1449 66.5211 41.1304C66.6141 41.0738 66.7059 41.0151 66.7957 40.9542C66.8159 40.9409 66.8346 40.927 66.8544 40.9131C66.9244 40.865 66.9933 40.8164 67.0616 40.7662C67.0926 40.7427 67.1236 40.7187 67.1545 40.6947C67.1914 40.6664 67.2293 40.6386 67.2662 40.6092V53.8773C67.2662 56.3634 65.2431 58.3864 62.7566 58.3864H40.4688C39.7136 58.3864 39.1016 58.9984 39.1016 59.7536C39.1016 60.5087 39.7136 61.1208 40.4688 61.1208H62.7566C66.7508 61.1208 70 57.871 70 53.8773V15.9934C70 11.9992 66.7508 8.75 62.7566 8.75V8.75ZM54.0749 31.4902L48.8775 26.2927C48.6206 26.0364 48.2729 25.8922 47.9103 25.8922H15.9251V18.7534H47.3442L54.0749 25.4842V31.4902ZM43.2453 44.3359H26.7547C24.8166 44.3359 23.2395 42.7588 23.2395 40.8207C23.2395 40.0655 22.6275 39.4535 21.8723 39.4535H15.9251V28.6266H47.3442L54.0749 35.3568V39.4535H48.1277C47.3725 39.4535 46.7605 40.0655 46.7605 40.8207C46.7605 42.7588 45.1834 44.3359 43.2453 44.3359ZM56.8093 39.4535V24.9175C56.8093 24.5549 56.6651 24.2072 56.4088 23.9509L48.8775 16.4196C48.6206 16.1633 48.2729 16.0191 47.9103 16.0191H14.5579C13.8027 16.0191 13.1907 16.6311 13.1907 17.3862V39.4535H7.24342C4.75685 39.4535 2.73438 37.4305 2.73438 34.9445V15.9934C2.73438 13.5069 4.75739 11.4844 7.24342 11.4844H62.7566C65.2426 11.4844 67.2656 13.5074 67.2656 15.9934V34.9445C67.2656 37.4305 65.2426 39.4535 62.7566 39.4535H56.8093Z" fill="#0F2B3D"/>
<path fill-rule="evenodd" clip-rule="evenodd" d="M35 58.3864C34.247 58.3864 33.6328 59.0005 33.6328 59.7536C33.6328 60.5066 34.247 61.1208 35 61.1208C35.753 61.1208 36.3672 60.5066 36.3672 59.7536C36.3672 59.0005 35.753 58.3864 35 58.3864Z" fill="#0F2B3D"/>
</svg>
