<svg width="70" height="70" viewBox="0 0 70 70" fill="none" xmlns="http://www.w3.org/2000/svg">
<path fill-rule="evenodd" clip-rule="evenodd" d="M69.3479 39.0161C69.373 38.9851 69.397 38.9531 69.4195 38.9194C69.4205 38.9178 69.4211 38.9168 69.4221 38.9152C69.4435 38.8831 69.4627 38.85 69.4814 38.8164C69.4868 38.8062 69.4921 38.7955 69.4975 38.7849C69.5113 38.7582 69.5242 38.7309 69.5364 38.7032C69.5407 38.693 69.545 38.6834 69.5493 38.6727C69.5642 38.6359 69.5781 38.5979 69.5904 38.559C69.5909 38.5574 69.5909 38.5558 69.5914 38.5536C69.6027 38.5173 69.6117 38.4799 69.6198 38.442C69.6219 38.4308 69.624 38.419 69.6262 38.4078C69.6315 38.3779 69.6363 38.348 69.6395 38.3181C69.6411 38.3064 69.6427 38.2946 69.6432 38.2834C69.647 38.2428 69.6497 38.2017 69.6497 38.1606V21.8211C69.6497 21.7799 69.647 21.7393 69.6432 21.6988C69.6427 21.687 69.6406 21.6753 69.6395 21.664C69.6363 21.6336 69.6315 21.6037 69.6262 21.5738C69.624 21.5626 69.6219 21.5514 69.6198 21.5396C69.6117 21.5017 69.6027 21.4643 69.5914 21.4275C69.5909 21.4259 69.5909 21.4243 69.5904 21.4227C69.5781 21.3842 69.5642 21.3463 69.5493 21.3089C69.5455 21.2988 69.5407 21.2886 69.5364 21.2785C69.5242 21.2507 69.5113 21.2234 69.4975 21.1962C69.4921 21.1861 69.4868 21.1754 69.4814 21.1652C69.4627 21.1316 69.4435 21.099 69.4227 21.067C69.4211 21.0654 69.4205 21.0638 69.4195 21.0616C69.397 21.0285 69.373 20.9965 69.3479 20.9655C69.341 20.9564 69.333 20.9473 69.3255 20.9383C69.3057 20.9148 69.2849 20.8923 69.2635 20.8699C69.2587 20.8651 69.2545 20.8592 69.2491 20.8539L48.7952 0.400543C48.5389 0.144196 48.1912 0 47.8281 0C47.466 0 47.1183 0.144196 46.8614 0.400543L22.871 24.3909H14.5718C13.8166 24.3909 13.2046 25.003 13.2046 25.7581C13.2046 26.5133 13.8166 27.1253 14.5718 27.1253H20.1366L12.5808 34.6812H4.82361C4.06845 34.6812 3.45642 35.2932 3.45642 36.0484C3.45642 36.8035 4.06845 37.4155 4.82361 37.4155H9.84642L8.21968 39.0423C7.68562 39.5763 7.68562 40.442 8.21968 40.9756L12.2155 44.9714H7.24609C6.49094 44.9714 5.87891 45.5834 5.87891 46.3386C5.87891 47.0937 6.49094 47.7058 7.24609 47.7058H14.9499L22.5057 55.2616H14.5718C13.8171 55.2616 13.2046 55.8742 13.2046 56.6288C13.2046 57.384 13.8171 57.996 14.5718 57.996H25.2401L36.843 69.5995C37.0999 69.8558 37.4476 70 37.8102 70C38.1723 70 38.52 69.8558 38.7769 69.5995L69.2491 39.1272C69.2539 39.1224 69.2582 39.1171 69.263 39.1117C69.2849 39.0893 69.3057 39.0663 69.3255 39.0428C69.333 39.0337 69.3404 39.0252 69.3479 39.0161ZM62.0457 29.9911L66.9147 25.1221V34.8601L62.0457 29.9911ZM37.8102 66.6995L29.1072 57.996H33.2675C34.0227 57.996 34.6347 57.384 34.6347 56.6288C34.6347 55.8742 34.0227 55.2616 33.2675 55.2616H26.3728L18.8165 47.7058H22.2889C23.0441 47.7058 23.6561 47.0937 23.6561 46.3386C23.6561 45.5834 23.0441 44.9714 22.2889 44.9714H16.0821L11.1196 40.0089L13.7135 37.4155H28.382C29.1366 37.4155 29.7491 36.8035 29.7491 36.0484C29.7491 35.2932 29.1366 34.6812 28.382 34.6812H16.4479L24.0038 27.1253H40.3641C41.1187 27.1253 41.7313 26.5133 41.7313 25.7581C41.7313 25.003 41.1187 24.3909 40.3641 24.3909H26.7381L47.8286 3.30048L66.3492 21.8211L59.1458 29.0239C58.6118 29.558 58.6118 30.4237 59.1458 30.9577L66.3492 38.1606L37.8102 66.6995Z" fill="#0F2B3D"/>
<path fill-rule="evenodd" clip-rule="evenodd" d="M19.9535 16.8351H26.6554C27.4105 16.8351 28.0226 16.2225 28.0226 15.4679C28.0226 14.7127 27.4105 14.1007 26.6554 14.1007H19.9535C19.1989 14.1007 18.5863 14.7127 18.5863 15.4679C18.5863 16.2225 19.1989 16.8351 19.9535 16.8351Z" fill="#0F2B3D"/>
<path fill-rule="evenodd" clip-rule="evenodd" d="M9.10303 27.1253C9.85605 27.1253 10.4702 26.5111 10.4702 25.7581C10.4702 25.0051 9.85605 24.3909 9.10303 24.3909C8.35001 24.3909 7.73584 25.0051 7.73584 25.7581C7.73584 26.5111 8.35001 27.1253 9.10303 27.1253Z" fill="#0F2B3D"/>
<path fill-rule="evenodd" clip-rule="evenodd" d="M1.77734 44.9714C1.02432 44.9714 0.410156 45.5855 0.410156 46.3386C0.410156 47.0916 1.02432 47.7057 1.77734 47.7057C2.53036 47.7057 3.14453 47.0916 3.14453 46.3386C3.14453 45.5855 2.53036 44.9714 1.77734 44.9714Z" fill="#0F2B3D"/>
</svg>
