<svg width="70" height="70" viewBox="0 0 70 70" fill="none" xmlns="http://www.w3.org/2000/svg">
<path fill-rule="evenodd" clip-rule="evenodd" d="M63.7163 12.8377C63.7157 12.8222 63.7147 12.8067 63.7136 12.7912C63.7099 12.7335 63.7035 12.6759 63.6922 12.6198C63.6922 12.6187 63.6922 12.6171 63.6922 12.6166C63.6805 12.5589 63.6639 12.5023 63.6452 12.4467C63.6404 12.4323 63.6351 12.4179 63.6298 12.404C63.6105 12.3517 63.5881 12.2999 63.5625 12.2502C63.5609 12.247 63.5598 12.2443 63.5582 12.2411C63.5304 12.1888 63.4978 12.1391 63.4637 12.0911C63.4546 12.0788 63.4455 12.0665 63.4364 12.0547C63.4001 12.0067 63.3611 11.9602 63.3179 11.917L51.8015 0.400543C51.7582 0.357285 51.7117 0.318298 51.6637 0.281982C51.6519 0.272369 51.6396 0.263825 51.6273 0.254745C51.5788 0.220566 51.5291 0.187988 51.4773 0.160217C51.4741 0.158615 51.4709 0.157547 51.4677 0.155945C51.4185 0.129776 51.3667 0.10788 51.3144 0.0881195C51.3 0.082779 51.2861 0.0779723 51.2717 0.0731659C51.2161 0.0544739 51.1595 0.0379181 51.1018 0.0261688C51.1008 0.0261688 51.0997 0.0261688 51.0981 0.0256348C51.042 0.0144196 50.9849 0.00854492 50.9272 0.00427246C50.9117 0.00320435 50.8962 0.00267028 50.8802 0.00213623C50.8647 0.00160218 50.8498 0 50.8348 0H22.0016C21.2464 0 20.6344 0.61203 20.6344 1.36719V12.7939H7.51953C6.76437 12.7939 6.15234 13.4059 6.15234 14.1611V35.9282C6.15234 36.6833 6.76437 37.2954 7.51953 37.2954C8.27469 37.2954 8.88672 36.6833 8.88672 35.9282V15.5283H34.9856V25.6775C34.9856 26.4326 35.5976 27.0447 36.3528 27.0447H46.502V40.5462H34.1749C33.7562 37.3418 31.0106 34.859 27.6941 34.859C24.0892 34.859 21.1562 37.7921 21.1562 41.3969C21.1562 45.0018 24.0892 47.9349 27.6941 47.9349C30.6448 47.9349 33.1436 45.9701 33.9543 43.2806H46.502V67.2656H8.88672V46.8657C8.88672 46.1105 8.27469 45.4985 7.51953 45.4985C6.76437 45.4985 6.15234 46.1105 6.15234 46.8657V68.6328C6.15234 69.388 6.76437 70 7.51953 70H47.8692C48.6238 70 49.2364 69.388 49.2364 68.6328V57.2061H62.3512C63.1064 57.2061 63.7184 56.5941 63.7184 55.8389V12.8836C63.7184 12.8681 63.7168 12.8532 63.7163 12.8377ZM27.6941 45.2005C25.5968 45.2005 23.8905 43.4942 23.8905 41.3969C23.8905 39.2997 25.5968 37.5934 27.6941 37.5934C29.7913 37.5934 31.4977 39.2997 31.4977 41.3969C31.4977 43.4942 29.7913 45.2005 27.6941 45.2005ZM59.0502 11.5164H52.202V4.66766L59.0502 11.5164ZM37.7194 17.4615L44.5682 24.3103H37.7194V17.4615ZM49.2364 54.4717V43.2806H54.1225L52.9422 44.4603C52.4081 44.9944 52.4081 45.8601 52.9422 46.3941C53.2092 46.6611 53.559 46.7947 53.9088 46.7947C54.2587 46.7947 54.609 46.6606 54.876 46.3941L58.3891 42.8806C58.4211 42.8485 58.4521 42.8143 58.4809 42.7791C58.4921 42.7652 58.5023 42.7502 58.5135 42.7358C58.5295 42.7145 58.5455 42.6936 58.5605 42.6717C58.5728 42.6536 58.5835 42.6344 58.5947 42.6157C58.6064 42.5964 58.6182 42.5772 58.6288 42.5574C58.6395 42.5377 58.6481 42.5179 58.6577 42.4982C58.6673 42.4773 58.6774 42.457 58.6865 42.4362C58.6945 42.4165 58.7009 42.3972 58.7079 42.3775C58.7159 42.355 58.7244 42.3326 58.7314 42.3096C58.7373 42.2904 58.7415 42.2701 58.7469 42.2504C58.7527 42.2269 58.7592 42.2039 58.764 42.1799C58.7682 42.1574 58.7709 42.1345 58.7741 42.112C58.7773 42.0907 58.7816 42.0699 58.7837 42.048C58.7875 42.0074 58.7896 41.9662 58.7901 41.9251C58.7901 41.9214 58.7907 41.9171 58.7907 41.9134C58.7907 41.9091 58.7901 41.9054 58.7901 41.9011C58.7896 41.86 58.7875 41.8194 58.7837 41.7788C58.7816 41.7569 58.7773 41.7355 58.7741 41.7142C58.7709 41.6917 58.7682 41.6688 58.764 41.6463C58.7592 41.6223 58.7527 41.5993 58.7469 41.5759C58.7415 41.5561 58.7373 41.5363 58.7314 41.5166C58.7244 41.4936 58.7159 41.4712 58.7079 41.4487C58.7009 41.429 58.6945 41.4098 58.6865 41.3905C58.6774 41.3692 58.6673 41.3489 58.6577 41.328C58.6481 41.3083 58.6395 41.2885 58.6288 41.2693C58.6182 41.249 58.6064 41.2298 58.5947 41.2106C58.5835 41.1919 58.5728 41.1726 58.5605 41.1545C58.5455 41.1326 58.5295 41.1118 58.5135 41.0909C58.5023 41.076 58.4921 41.061 58.4809 41.0471C58.4515 41.0119 58.4211 40.9777 58.3891 40.9457L54.876 37.4326C54.342 36.8986 53.4763 36.8986 52.9422 37.4326C52.4081 37.9662 52.4081 38.8319 52.9422 39.3659L54.1225 40.5462H49.2364V25.6775C49.2364 25.662 49.2342 25.647 49.2337 25.6316C49.2332 25.6161 49.2326 25.6006 49.2316 25.5851C49.2273 25.5274 49.2214 25.4692 49.2102 25.4131C49.2097 25.4121 49.2097 25.411 49.2097 25.4105C49.1979 25.3528 49.1814 25.2962 49.1627 25.2401C49.1579 25.2262 49.1531 25.2123 49.1477 25.1984C49.128 25.1456 49.1055 25.0932 49.0794 25.0436C49.0783 25.0409 49.0772 25.0382 49.0756 25.035C49.0479 24.9832 49.0158 24.933 48.9811 24.8849C48.972 24.8727 48.9635 24.8609 48.9544 24.8486C48.9175 24.8006 48.8786 24.7541 48.8353 24.7108L37.3189 13.1944C37.2756 13.1512 37.2292 13.1122 37.1811 13.0759C37.1693 13.0668 37.1571 13.0577 37.1448 13.0486C37.0967 13.0145 37.047 12.9819 36.9947 12.9546C36.9915 12.9525 36.9888 12.9514 36.9856 12.9504C36.936 12.9242 36.8842 12.9018 36.8318 12.8825C36.8179 12.8772 36.8035 12.8719 36.7896 12.8671C36.7341 12.8484 36.6775 12.8318 36.6193 12.8201C36.6187 12.8201 36.6177 12.8201 36.6166 12.8201C36.56 12.8088 36.5028 12.8024 36.4446 12.7987C36.4291 12.7976 36.4137 12.7966 36.3982 12.796C36.3827 12.7955 36.3677 12.7939 36.3522 12.7939H23.3688V2.73438H49.4676V12.8836C49.4676 13.6388 50.0797 14.2508 50.8348 14.2508H60.984V54.4717H49.2364Z" fill="#0F2B3D"/>
<path fill-rule="evenodd" clip-rule="evenodd" d="M7.51953 42.7641C8.27255 42.7641 8.88672 42.15 8.88672 41.3969C8.88672 40.6439 8.27255 40.0298 7.51953 40.0298C6.76651 40.0298 6.15234 40.6439 6.15234 41.3969C6.15234 42.15 6.76651 42.7641 7.51953 42.7641Z" fill="#0F2B3D"/>
</svg>
