<svg width="80" height="80" viewBox="0 0 80 80" fill="none" xmlns="http://www.w3.org/2000/svg">
<g clip-path="url(#clip0)">
<path d="M74.6571 34.5071C74.5775 33.8469 74.0233 33.3464 73.3583 33.3332L1.35893 32.0002C0.978557 31.9856 0.612347 32.1408 0.358441 32.4245C0.100141 32.7009 -0.0277886 33.0739 0.00492614 33.4514L4.00541 78.7844C4.06644 79.4724 4.64261 80.0002 5.33353 80.0002H78.6664C79.4032 80.0002 79.9999 79.4036 79.9999 78.6672C79.9999 78.6135 79.997 78.5598 79.9901 78.5066L74.6571 34.5071ZM6.55472 77.3337L2.79203 34.695L72.1493 35.9773L77.1625 77.3337H6.55472Z" fill="#3BB3C4"/>
<path d="M9.33299 53.333H23.9999C24.7363 53.333 25.3334 52.7363 25.333 51.9995C25.333 51.9448 25.3295 51.8896 25.3222 51.835L23.9892 41.1685C23.9057 40.501 23.3388 40 22.6669 40H7.99999C7.26317 40 6.66649 40.5977 6.66698 41.3335C6.66698 41.3892 6.66991 41.4443 6.67723 41.4985L8.01024 52.1655C8.09422 52.8325 8.66112 53.333 9.33299 53.333ZM21.4892 42.6665L22.4892 50.6665H10.5102L9.51072 42.6665H21.4892Z" fill="#3BB3C4"/>
<path d="M25.3334 60H9.33299C8.59715 60.0005 7.99998 60.5977 7.99998 61.3335C7.99998 61.3892 8.00389 61.4443 8.01023 61.499L9.34422 72.1655C9.42722 72.8325 9.99412 73.333 10.6665 73.334H26.6664C27.4033 73.333 27.9999 72.7363 27.9995 71.9995C27.9995 71.9448 27.9965 71.8896 27.9892 71.835L26.6562 61.1685C26.5722 60.501 26.0053 60 25.3334 60ZM11.8442 70.6665L10.8442 62.6665H24.1562L25.1557 70.6665H11.8442Z" fill="#3BB3C4"/>
<path d="M47.6669 52.8828C47.9194 52.5957 48.037 52.2144 47.9892 51.835L46.6562 41.1685C46.5722 40.501 46.0053 40 45.3334 40H30.6664C29.9301 40 29.3334 40.5977 29.3334 41.3335C29.3334 41.3892 29.3373 41.4443 29.3442 41.4985L30.6772 52.1655C30.7607 52.8325 31.3276 53.333 31.9994 53.333H46.6664C47.0492 53.334 47.4135 53.1694 47.6669 52.8828ZM33.1772 50.6665L32.1772 42.6665H44.1562L45.1557 50.6665H33.1772Z" fill="#3BB3C4"/>
<path d="M47.9999 60H33.3334C32.5966 60.0005 32.0004 60.5977 32.0004 61.3335C32.0004 61.3892 32.0038 61.4443 32.0107 61.499L33.3442 72.1655C33.4272 72.8325 33.9941 73.333 34.6664 73.334H49.3329C50.0697 73.333 50.6664 72.7363 50.6659 71.9995C50.6659 71.9448 50.663 71.8896 50.6557 71.835L49.3226 61.1685C49.2392 60.501 48.6718 60 47.9999 60ZM35.8437 70.6665L34.8437 62.6665H46.8227L47.8222 70.6665H35.8437Z" fill="#3BB3C4"/>
<path d="M68.9999 52.8828C69.2523 52.5957 69.37 52.2144 69.3226 51.835L67.9891 41.1685C67.9061 40.501 67.3387 40 66.6664 40H53.3334C52.5966 40 52.0004 40.5977 52.0004 41.3335C52.0004 41.3892 52.0038 41.4443 52.0106 41.4985L53.3436 52.1655C53.4271 52.8325 53.994 53.333 54.6664 53.333H67.9999C68.3822 53.334 68.7465 53.1694 68.9999 52.8828ZM55.8436 50.6665L54.8436 42.6665H65.4891L66.4891 50.6665H55.8436Z" fill="#3BB3C4"/>
<path d="M69.3329 60H55.9999C55.2631 60.0005 54.6669 60.5977 54.6669 61.3335C54.6669 61.3892 54.6703 61.4443 54.6771 61.499L56.0106 72.1655C56.0936 72.8325 56.661 73.333 57.3329 73.334H70.6664C71.4027 73.333 71.9994 72.7363 71.9994 71.9995C71.9994 71.9448 71.9959 71.8896 71.9891 71.835L70.6556 61.1685C70.5726 60.501 70.0057 60 69.3329 60ZM58.5101 70.6665L57.5106 62.6665H68.1556L69.1561 70.6665H58.5101Z" fill="#3BB3C4"/>
<path d="M67.9999 14.667C67.9999 10.2485 64.4178 6.66699 59.9999 6.66699C55.5819 6.66699 51.9994 10.2485 51.9994 14.667C51.9994 19.085 55.5819 22.6665 59.9999 22.6665C64.4159 22.6626 67.9955 19.0835 67.9999 14.667ZM59.9999 20C57.0546 20 54.6664 17.6123 54.6664 14.667C54.6664 11.7212 57.0546 9.3335 59.9999 9.3335C62.9457 9.3335 65.3334 11.7212 65.3334 14.667C65.3334 17.6123 62.9457 20 59.9999 20Z" fill="#3BB3C4"/>
<path d="M59.9999 5.3335C60.7362 5.3335 61.3329 4.73633 61.3329 4.00049V1.3335C61.3329 0.597168 60.7362 0 59.9999 0C59.2636 0 58.6664 0.597168 58.6664 1.3335V4.00049C58.6664 4.73633 59.2636 5.3335 59.9999 5.3335Z" fill="#3BB3C4"/>
<path d="M53.5121 6.09641C53.8842 6.73166 54.7011 6.94406 55.3363 6.57199C55.9657 6.20334 56.1815 5.39719 55.8212 4.76291L54.4882 2.45383C54.1234 1.81369 53.31 1.58957 52.6698 1.95334C52.0297 2.31711 51.8056 3.13156 52.1693 3.7717C52.1723 3.77658 52.1752 3.78195 52.1786 3.78684L53.5121 6.09641Z" fill="#3BB3C4"/>
<path d="M47.7866 9.155L50.0962 10.4885C50.7363 10.8523 51.5498 10.6281 51.914 9.98801C52.2744 9.35373 52.0581 8.54807 51.4292 8.17893L49.1201 6.84543C48.48 6.48166 47.6655 6.70578 47.3017 7.34592C46.9409 7.9802 47.1572 8.78635 47.7866 9.155Z" fill="#3BB3C4"/>
<path d="M46.6664 16.0005H49.3329C50.0697 16.0005 50.6664 15.4028 50.6664 14.667C50.6664 13.9302 50.0697 13.333 49.3329 13.333H46.6664C45.9301 13.333 45.3334 13.9302 45.3334 14.667C45.3334 15.4028 45.9301 16.0005 46.6664 16.0005Z" fill="#3BB3C4"/>
<path d="M50.0962 18.8452L47.7866 20.1787C47.146 20.5424 46.9229 21.3569 47.2866 21.997C47.6504 22.6367 48.4644 22.8608 49.105 22.497C49.1099 22.4941 49.1148 22.4907 49.1201 22.4882L51.4292 21.1547C52.0645 20.7827 52.2774 19.9653 51.9053 19.3305C51.5366 18.7011 50.73 18.4853 50.0962 18.8452Z" fill="#3BB3C4"/>
<path d="M52.667 27.3681C53.3042 27.7362 54.1196 27.5175 54.4882 26.8798L55.8213 24.5707C56.185 23.9306 55.9614 23.1166 55.3213 22.7528C54.687 22.392 53.8808 22.6078 53.5122 23.2372L52.1787 25.5468C51.8105 26.1845 52.0288 26.9999 52.667 27.3681Z" fill="#3BB3C4"/>
<path d="M58.6664 25.3335V28C58.6664 28.7368 59.2636 29.3335 59.9999 29.3335C60.7362 29.3335 61.3329 28.7368 61.3329 28V25.3335C61.3329 24.5972 60.7362 24.0005 59.9999 24.0005C59.2636 24.0005 58.6664 24.5972 58.6664 25.3335Z" fill="#3BB3C4"/>
<path d="M65.5116 26.8798C65.8846 27.5151 66.701 27.7285 67.3363 27.3559C67.9657 26.9868 68.181 26.1811 67.8211 25.5468L66.4881 23.2372C66.1239 22.5971 65.3099 22.373 64.6698 22.7372C64.0296 23.101 63.8055 23.915 64.1693 24.5551C64.1722 24.5605 64.1756 24.5654 64.1786 24.5707L65.5116 26.8798Z" fill="#3BB3C4"/>
<path d="M68.5707 21.1548L70.8798 22.4883C71.515 22.8609 72.3324 22.648 72.7045 22.0122C73.0771 21.377 72.8637 20.5606 72.2284 20.1875C72.2235 20.1846 72.2182 20.1821 72.2133 20.1787L69.9037 18.8452C69.2685 18.4731 68.4516 18.686 68.0795 19.3213C67.7069 19.9565 67.9198 20.7734 68.5556 21.1465C68.5605 21.1489 68.5653 21.1519 68.5707 21.1548Z" fill="#3BB3C4"/>
<path d="M69.3329 14.667C69.3329 15.4028 69.93 16.0005 70.6664 16.0005H73.3333C74.0692 16.0005 74.6664 15.4028 74.6664 14.667C74.6664 13.9302 74.0692 13.333 73.3333 13.333H70.6664C69.93 13.333 69.3329 13.9302 69.3329 14.667Z" fill="#3BB3C4"/>
<path d="M68.0824 10.0001C68.4505 10.6378 69.266 10.8566 69.9037 10.4884L72.2132 9.1549C72.8534 8.79113 73.0775 7.97667 72.7132 7.33654C72.3495 6.69689 71.535 6.47277 70.8949 6.83654C70.89 6.83995 70.8851 6.84288 70.8797 6.84581L68.5707 8.17882C67.933 8.54699 67.7142 9.36242 68.0824 10.0001Z" fill="#3BB3C4"/>
<path d="M64.6665 6.58394C65.3042 6.95259 66.1196 6.73335 66.4882 6.09614L67.8213 3.78657C68.185 3.14644 67.9609 2.33296 67.3208 1.96821C66.6865 1.60835 65.8808 1.82417 65.5117 2.45356L64.1787 4.76265C63.8105 5.40034 64.0293 6.21577 64.6665 6.58394Z" fill="#3BB3C4"/>
</g>
<defs>
<clipPath id="clip0">
<rect width="80" height="80" fill="white"/>
</clipPath>
</defs>
</svg>
