<svg width="80" height="80" viewBox="0 0 80 80" fill="none" xmlns="http://www.w3.org/2000/svg">
<path d="M62.6668 44.9741C58.9909 44.9741 56.0001 47.9647 56.0001 51.6408C56.0001 55.3168 58.9907 58.3076 62.6668 58.3076C66.3427 58.3076 69.3335 55.3169 69.3335 51.6408C69.3334 47.9649 66.3427 44.9741 62.6668 44.9741ZM62.6668 55.6408C60.4615 55.6408 58.6668 53.8462 58.6668 51.6408C58.6668 49.4355 60.4615 47.6408 62.6668 47.6408C64.8721 47.6408 66.6668 49.4355 66.6668 51.6408C66.6668 53.8462 64.8721 55.6408 62.6668 55.6408Z" fill="#3BB3C4"/>
<path d="M17.3332 44.9741C13.6573 44.9741 10.6665 47.9647 10.6665 51.6408C10.6665 55.3168 13.6571 58.3076 17.3332 58.3076C21.0091 58.3076 23.9999 55.3169 23.9999 51.6408C23.9999 47.9649 21.0093 44.9741 17.3332 44.9741ZM17.3332 55.6408C15.1279 55.6408 13.3332 53.8462 13.3332 51.6408C13.3332 49.4355 15.1279 47.6408 17.3332 47.6408C19.5385 47.6408 21.3332 49.4355 21.3332 51.6408C21.3332 53.8462 19.5385 55.6408 17.3332 55.6408Z" fill="#3BB3C4"/>
<path d="M78.6667 44.974V36.974C78.6667 36.3994 78.3 35.89 77.7547 35.7087L70.2306 33.2008C67.3973 28.4022 63.5027 23.8354 54.8959 22.3275C54.88 22.3248 54.8639 22.3222 54.848 22.3195C38.9547 20.1222 27.0212 23.7075 19.36 32.9795C10.5027 33.1075 1.33328 35.9008 1.33328 40.974V44.974C0.597344 44.974 0 45.5714 0 46.3073V51.6406C0 52.3765 0.597344 52.9739 1.33328 52.9739H6.66656C7.4025 52.9739 7.99984 52.3765 7.99984 51.6406C7.99984 46.4939 12.1866 42.3073 17.3331 42.3073C22.4797 42.3073 26.6664 46.494 26.6664 51.6406C26.6664 52.3765 27.2638 52.9739 27.9997 52.9739H51.9997C52.7356 52.9739 53.333 52.3765 53.333 51.6406C53.333 46.4939 57.5197 42.3073 62.6662 42.3073C67.813 42.3073 71.9995 46.494 71.9995 51.6406C71.9995 52.3765 72.5969 52.9739 73.3328 52.9739H78.6661C79.402 52.9739 79.9994 52.3765 79.9994 51.6406V46.3073C80 45.5714 79.4027 44.974 78.6667 44.974ZM61.3986 27.4487C63.7145 28.8687 65.44 30.7434 66.9372 32.974H61.3466L61.3986 27.4487ZM45.3333 24.3594C48.1853 24.3208 51.2186 24.5114 54.46 24.9594C56.0653 25.242 57.4759 25.6434 58.7453 26.142L58.68 32.9753H45.3333V24.3594ZM42.6667 24.4728V32.9754H22.9627C27.9053 27.8767 34.4227 25.0594 42.6667 24.4728ZM77.3333 50.3075H74.5933C73.928 44.3154 68.8333 39.6408 62.6666 39.6408C56.4998 39.6408 51.4052 44.3154 50.7398 50.3075H29.26C28.5947 44.3154 23.5 39.6408 17.3333 39.6408C11.1666 39.6408 6.07188 44.3154 5.40656 50.3075H2.66672V47.6408C3.40266 47.6408 4 47.0434 4 46.3075V42.3075H5.33328C6.06922 42.3075 6.66656 41.7101 6.66656 40.9742C6.66656 40.2383 6.06922 39.6409 5.33328 39.6409H4.64266C6.44672 37.6823 11.9653 35.6409 20 35.6409H69.1159L76 37.9356V39.6409H74.6667C73.9308 39.6409 73.3334 40.2383 73.3334 40.9742C73.3334 41.7101 73.9308 42.3075 74.6667 42.3075H76V46.3075C76 47.0434 76.5973 47.6408 77.3333 47.6408V50.3075Z" fill="#3BB3C4"/>
</svg>
