<svg width="80" height="80" viewBox="0 0 80 80" fill="none" xmlns="http://www.w3.org/2000/svg">
<path d="M76 16H37.3333V1.33333C37.3333 0.597 36.7363 0 36 0H1.33333C0.597 0 0 0.597 0 1.33333V78.6667C0 79.403 0.597 80 1.33333 80H62.6667C63.403 79.9998 63.9998 79.4028 63.9997 78.6663C63.9997 78.3128 63.8592 77.974 63.6093 77.724L56.9427 71.0573C56.6927 70.8073 56.3537 70.6667 56 70.6667H46.6667V64H76C78.2092 64 80 62.2092 80 60V20C80 17.7908 78.2092 16 76 16ZM34.6667 77.3333H2.66667V2.66667H34.6667V77.3333ZM55.448 73.3333L59.448 77.3333H37.3333V64H44V70.6667H41.3333C40.597 70.6667 40 71.2637 40 72C40 72.7363 40.597 73.3333 41.3333 73.3333H55.448ZM77.3333 60C77.3333 60.7363 76.7363 61.3333 76 61.3333H37.3333V58.6667H42.6667V56H37.3333V24H42.6667V21.3333H37.3333V18.6667H76C76.7363 18.6667 77.3333 19.2637 77.3333 20V60Z" fill="#3BB3C4"/>
<path d="M45.3333 24H72V56H56V58.6667H74.6667V21.3334H45.3333V24Z" fill="#3BB3C4"/>
<path d="M53.3333 56H50.6667V58.6667H53.3333V56Z" fill="#3BB3C4"/>
<path d="M48 56H45.3333V58.6667H48V56Z" fill="#3BB3C4"/>
<path d="M30.6667 21.3334H6.66667V24H30.6667V21.3334Z" fill="#3BB3C4"/>
<path d="M30.6667 26.6666H6.66667V29.3333H30.6667V26.6666Z" fill="#3BB3C4"/>
<path d="M12 56C9.79083 56 8 57.7908 8 60C8 62.2092 9.79083 64 12 64C14.2092 64 16 62.2092 16 60C16 57.7908 14.2092 56 12 56ZM12 61.3333C11.2637 61.3333 10.6667 60.7363 10.6667 60C10.6667 59.2637 11.2637 58.6667 12 58.6667C12.7363 58.6667 13.3333 59.2637 13.3333 60C13.3333 60.7363 12.7363 61.3333 12 61.3333Z" fill="#3BB3C4"/>
<path d="M29.3333 60C29.3333 57.7908 27.5425 56 25.3333 56C23.1242 56 21.3333 57.7908 21.3333 60C21.3333 62.2092 23.1242 64 25.3333 64C27.5425 64 29.3333 62.2092 29.3333 60ZM25.3333 61.3333C24.597 61.3333 24 60.7363 24 60C24 59.2637 24.597 58.6667 25.3333 58.6667C26.0697 58.6667 26.6667 59.2637 26.6667 60C26.6667 60.7363 26.0697 61.3333 25.3333 61.3333Z" fill="#3BB3C4"/>
<path d="M9.33333 68H6.66667V73.3333H9.33333V68Z" fill="#3BB3C4"/>
<path d="M14.6667 68H12V73.3333H14.6667V68Z" fill="#3BB3C4"/>
<path d="M20 68H17.3333V73.3333H20V68Z" fill="#3BB3C4"/>
<path d="M25.3333 68H22.6667V73.3333H25.3333V68Z" fill="#3BB3C4"/>
<path d="M30.6667 68H28V73.3333H30.6667V68Z" fill="#3BB3C4"/>
</svg>
