<svg width="80" height="80" viewBox="0 0 80 80" fill="none" xmlns="http://www.w3.org/2000/svg">
<path d="M11.9998 17.3334H14.6665C14.6732 12.1816 18.848 8.00671 23.9999 8.00005V5.33337C17.3755 5.34071 12.0073 10.7091 11.9998 17.3334Z" fill="#3BB3C4"/>
<path d="M73.2653 57.3335C72.5636 45.6069 62.4886 36.6696 50.7621 37.3712C47.4396 37.5701 44.21 38.5457 41.3332 40.2201V17.3334C41.3332 7.76035 33.5729 0 23.9998 0C14.4268 0 6.66647 7.76035 6.66647 17.3334V62.6668C6.65863 72.2317 14.406 79.9918 23.9708 79.9998C29.0352 80.004 33.8477 77.7913 37.1412 73.9442C45.5552 82.158 59.0347 81.9958 67.2486 73.5818C70.8196 69.9238 72.9553 65.103 73.2653 60.0001H73.3333V57.3335H73.2653ZM9.33314 17.3334C9.34264 9.23719 15.9037 2.67617 23.9998 2.66667C32.0882 2.65484 38.6547 9.20235 38.6665 17.2907C38.6665 17.3049 38.6665 17.3192 38.6665 17.3334V38.6667H9.33314V17.3334ZM23.9998 77.3335C15.9037 77.324 9.34264 70.763 9.33314 62.6668V41.3334H38.6665V42.0401C33.9855 45.7924 31.1054 51.3456 30.7345 57.3335H30.6665V60.0001H30.7345C30.9997 64.3611 32.6059 68.5336 35.3332 71.9468C32.5495 75.3448 28.3925 77.3207 23.9998 77.3335ZM51.9999 77.3335C42.2124 77.3217 34.0914 69.7618 33.3799 60.0001H70.6199C69.9086 69.7618 61.7874 77.3217 51.9999 77.3335ZM33.3799 57.3335C34.1084 47.0499 43.0354 39.3039 53.3191 40.0326C62.5884 40.6893 69.9633 48.0641 70.6199 57.3335H33.3799Z" fill="#3BB3C4"/>
<path d="M14.6665 20.0001H11.9998V22.6667H14.6665V20.0001Z" fill="#3BB3C4"/>
</svg>
