<svg width="125" height="61" viewBox="0 0 125 61" fill="none" xmlns="http://www.w3.org/2000/svg">
<path d="M38.6084 39.3164H46.5415V41.9044H42.7677V60.0882H38.6084V39.3164Z" fill="#0079C2"/>
<path d="M51.245 52.2903L51.9578 41.9044H52.1965L52.9094 52.2903H51.245ZM46.6389 60.0882H50.7112L51.0966 54.5718H53.0577L53.4448 60.0882H57.5154L55.3463 39.3164H48.8081L46.6389 60.0882Z" fill="#0079C2"/>
<path d="M63.472 52.8181V56.7341C63.472 57.2619 63.8813 57.4151 64.12 57.4151C64.5123 57.4151 64.7851 57.0917 64.7851 56.7341V51.8987C64.7851 51.2517 64.6657 50.5366 63.1139 50.5366H61.4256V48.2551H63.1821C64.3588 48.2551 64.7851 47.9827 64.7851 46.7057V42.5854C64.7851 42.2279 64.5123 41.9044 64.12 41.9044C63.8813 41.9044 63.472 42.0406 63.472 42.5854V45.9736H59.311V43.0281C59.311 41.5809 59.4816 39.3164 62.3977 39.3164H65.8424C68.7585 39.3164 68.9461 41.5809 68.9461 43.0281V46.3482C68.9461 48.6126 67.3601 49.2256 66.1153 49.1745V49.3788C68.912 49.3107 68.9461 51.456 68.9461 52.1881V56.3766C68.9461 57.8408 68.7585 60.0882 65.8424 60.0882H62.3977C59.4816 60.0882 59.311 57.8408 59.311 56.3766V52.8181H63.472Z" fill="#0079C2"/>
<path d="M71.6746 39.3164H81.3096V60.0882H77.1486V41.9044H75.8355V60.0882H71.6746V39.3164Z" fill="#0079C2"/>
<path d="M88.1991 50.7409V41.9044H88.7448C89.1881 41.9044 89.5122 42.2789 89.5122 42.943V49.7023C89.5122 50.3664 89.1881 50.7409 88.7448 50.7409H88.1991ZM84.0381 60.0882H88.1991V53.0224H90.5865C93.4856 53.0224 93.6731 50.775 93.6731 49.3107V43.0281C93.6731 41.5809 93.4856 39.3164 90.5865 39.3164H84.0381V60.0882Z" fill="#0079C2"/>
<path d="M101.876 56.7341C101.876 57.0917 101.603 57.4151 101.211 57.4151C100.972 57.4151 100.563 57.2619 100.563 56.7341V42.5854C100.563 42.0406 100.972 41.9044 101.211 41.9044C101.603 41.9044 101.876 42.2279 101.876 42.5854V56.7341ZM96.4019 56.3766C96.4019 57.8408 96.5894 60.0882 99.4885 60.0882H102.95C105.849 60.0882 106.037 57.8408 106.037 56.3766V43.0281C106.037 41.5809 105.849 39.3164 102.95 39.3164H99.4885C96.5894 39.3164 96.4019 41.5809 96.4019 43.0281V56.3766Z" fill="#0079C2"/>
<path d="M119.577 39.3164H125V60.0882H120.839V47.0633H120.686L118.537 60.0882H115.211L113.08 47.0633H112.926V60.0882H108.765V39.3164H114.171L116.883 53.9248L119.577 39.3164Z" fill="#0079C2"/>
<path d="M33.2162 10.917C31.9423 5.34944 28.75 0.820501 28.31 0.0883789C27.6142 1.12697 25.0682 5.1281 23.7738 9.55489C22.3601 14.5095 22.1521 18.9022 22.6398 23.2098C23.1241 27.5344 24.9539 31.9782 24.9539 31.9782C25.9259 34.2938 27.3823 36.7966 28.3304 38.0225C29.7203 36.2178 32.9143 30.8375 33.9102 23.8227C34.4645 19.9067 34.4883 16.4845 33.2162 10.917ZM28.31 36.6264C27.6841 35.4516 26.7121 33.2212 26.62 29.7478C26.5961 26.4107 27.9382 23.5333 28.3304 22.9374C28.68 23.5333 29.8362 26.0361 29.9744 29.4584C30.0682 32.7955 28.9563 35.4345 28.31 36.6264ZM32.8461 20.3664C32.7984 22.4947 32.5443 24.7422 32.2203 26.0872C32.3362 23.7717 32.0583 20.5197 31.5262 17.9658C30.9942 15.4289 29.4883 11.1724 28.2861 9.21436C27.1759 11.0872 25.8083 14.7649 25.092 17.9487C24.3724 21.1326 24.3519 24.9976 24.3519 26.1553C24.1609 25.1848 23.6834 21.6945 23.8182 18.2041C23.9307 15.3267 24.606 12.3472 24.9761 10.9851C26.3881 6.43912 27.986 3.52765 28.2861 3.06794C28.5862 3.52765 30.5985 7.12015 31.6422 10.8829C32.6807 14.6457 32.8905 18.2552 32.8461 20.3664Z" fill="#0079C2"/>
<path d="M30.4707 39.3163H20.7861V45.8032C20.7947 45.8032 20.8015 45.7862 20.81 45.7862C23.0917 43.5047 26.7923 43.5047 29.0757 45.7862C31.3574 48.0507 31.3574 51.7453 29.0757 54.0268C29.0655 54.0438 29.0552 54.0438 29.045 54.0609C29.0331 54.0609 29.0211 54.0779 29.0109 54.0949C26.7343 56.3424 23.7602 57.4661 20.7861 57.4661C17.7984 57.4661 14.8107 56.3424 12.5324 54.0609C8.51466 50.0597 8.03888 43.8452 11.1016 39.3163C11.5143 38.7033 11.9901 38.1244 12.5324 37.5796C14.8107 35.2981 17.7984 34.1744 20.7861 34.1744V18.5785C9.30594 18.5785 0 27.8577 0 39.3163C0 50.7748 9.30594 60.0711 20.7861 60.0711C26.7718 60.0711 32.164 57.5342 35.9567 53.499V39.3163H30.4707Z" fill="#0079C2"/>
</svg>
