<svg width="50" height="80" viewBox="0 0 50 80" fill="none" xmlns="http://www.w3.org/2000/svg">
<path fill-rule="evenodd" clip-rule="evenodd" d="M49.9977 15.0832C49.9971 15.0667 49.9965 15.0502 49.9954 15.0337C49.9907 14.9684 49.9844 14.9043 49.9716 14.8408C49.9589 14.7773 49.9409 14.7137 49.9206 14.6525C49.9154 14.6372 49.9102 14.6219 49.9044 14.6066C49.8829 14.5484 49.8586 14.4913 49.8308 14.436C49.8291 14.4331 49.8279 14.4302 49.8262 14.4272C49.796 14.3696 49.7613 14.3149 49.7236 14.2613C49.7143 14.2478 49.7045 14.2348 49.6946 14.2213C49.6546 14.1684 49.6129 14.1172 49.566 14.0695L36.142 0.441217C36.0951 0.393566 36.0447 0.351209 35.9925 0.310617C35.9792 0.300616 35.9659 0.290027 35.9525 0.280614C35.8998 0.242375 35.8465 0.207078 35.7903 0.177075C35.7862 0.174722 35.7822 0.173546 35.7787 0.171192C35.7254 0.142954 35.6698 0.118834 35.6135 0.0970678C35.5979 0.091185 35.5828 0.0858902 35.5666 0.0805957C35.5063 0.0600056 35.4455 0.0417686 35.3823 0.0288262H35.3812C35.3192 0.0164721 35.256 0.00941264 35.1923 0.00470632C35.176 0.00411804 35.1598 0.00294144 35.1436 0.00235316C35.1268 0.00176488 35.11 0 35.0932 0H1.48344C0.664071 0 0 0.67418 0 1.50602V65.9673C0 66.7991 0.664071 67.4733 1.48344 67.4733H25.7161V78.4939C25.7161 79.0416 26.0093 79.5463 26.4816 79.8116C26.9544 80.077 27.531 80.0611 27.9882 79.7699L33.638 76.1713L39.2878 79.7699C39.5283 79.9228 39.8024 79.9999 40.0765 79.9999C40.3233 79.9999 40.5708 79.9375 40.7945 79.8122C41.2667 79.5469 41.5599 79.0421 41.5599 78.4939V67.4733H48.5166C49.3359 67.4733 50 66.7991 50 65.9673V15.1343C50 15.1173 49.9983 15.1002 49.9977 15.0832ZM36.5766 5.14224L44.9354 13.6283H36.5766V5.14224ZM24.9842 51.3359C24.8799 51.0483 24.7101 50.5782 24.7061 50.3859C24.822 50.24 25.2241 49.9817 25.4704 49.824C25.9989 49.4852 26.5981 49.1004 27.0327 48.4992C27.4713 47.8915 27.6498 47.1897 27.8074 46.5708C27.8764 46.3002 27.9876 45.8631 28.0827 45.6978C28.1348 45.6866 28.2443 45.6707 28.45 45.6707C28.6152 45.6707 28.8 45.6801 28.9959 45.6901C29.2207 45.7013 29.4525 45.7131 29.6947 45.7131C30.229 45.7131 30.6601 45.6519 31.0513 45.5195C31.7345 45.2889 32.2809 44.8424 32.763 44.4482C33.0296 44.2306 33.4758 43.8658 33.6311 43.8435C33.8008 43.8658 34.2465 44.2306 34.513 44.4482C34.9951 44.8424 35.5422 45.2889 36.2253 45.5195C36.6165 45.6519 37.047 45.7131 37.5819 45.7131C37.8235 45.7131 38.0559 45.7013 38.2801 45.6901C38.476 45.6801 38.6609 45.6707 38.8266 45.6707C39.0323 45.6707 39.1412 45.686 39.194 45.6978C39.289 45.8631 39.4002 46.3002 39.4686 46.5708C39.6262 47.1897 39.8053 47.8915 40.244 48.4992C40.678 49.1004 41.2771 49.4846 41.8062 49.824C42.0519 49.9823 42.454 50.24 42.5699 50.3859C42.5659 50.5782 42.3961 51.0483 42.2924 51.3359C42.0716 51.946 41.8218 52.6378 41.8218 53.4044C41.8218 54.1709 42.0716 54.8627 42.2918 55.4734C42.3961 55.7611 42.5659 56.2311 42.5699 56.4235C42.454 56.5694 42.0519 56.827 41.8062 56.9853C41.2771 57.3241 40.678 57.7089 40.244 58.3101C39.8053 58.9178 39.6262 59.6196 39.4686 60.2385C39.4002 60.5086 39.2884 60.9462 39.194 61.1115C39.1412 61.1227 39.0323 61.1386 38.8266 61.1386C38.6609 61.1386 38.476 61.1292 38.2801 61.1192C38.0559 61.108 37.8235 61.0963 37.5819 61.0963C37.047 61.0963 36.6165 61.1574 36.2253 61.2898C35.5422 61.5204 34.9951 61.9675 34.513 62.3611C34.2505 62.5764 33.8124 62.9335 33.638 62.9653C33.4636 62.9335 33.0261 62.5764 32.7636 62.3611C32.2809 61.9675 31.7345 61.5204 31.0513 61.2898C30.6601 61.1574 30.229 61.0963 29.6947 61.0963C29.4531 61.0963 29.2207 61.108 28.9959 61.1192C28.8006 61.1292 28.6158 61.1386 28.45 61.1386C28.2443 61.1386 28.1354 61.1227 28.0827 61.1115C27.9876 60.9462 27.8764 60.5091 27.8074 60.2385C27.6504 59.6196 27.4713 58.9178 27.0327 58.3101C26.5986 57.7089 25.9995 57.3241 25.4704 56.9853C25.2247 56.8276 24.8226 56.5694 24.7067 56.4235C24.7107 56.2317 24.8805 55.7611 24.9842 55.4734C25.205 54.8633 25.4548 54.1715 25.4548 53.405C25.4548 52.6378 25.2044 51.946 24.9842 51.3359ZM38.5931 75.7713L34.4267 73.1175C33.9446 72.811 33.3315 72.811 32.8494 73.1175L28.683 75.7713V64.146C28.8406 64.1412 28.9953 64.1354 29.1454 64.1277C29.3418 64.1171 29.5273 64.1077 29.6947 64.1077C29.9578 64.1077 30.0702 64.1324 30.1137 64.1471C30.2904 64.2071 30.63 64.4848 30.9029 64.7078C31.5954 65.2737 32.4571 65.9779 33.638 65.9779C34.819 65.9779 35.6806 65.2737 36.3731 64.7078C36.646 64.4848 36.9856 64.2071 37.1618 64.1477C37.2058 64.133 37.3182 64.1083 37.5813 64.1083C37.7488 64.1083 37.9342 64.1177 38.1306 64.1277C38.2807 64.1354 38.4354 64.1418 38.5925 64.146L38.5931 75.7713ZM41.5599 64.4613V62.9323C42.0009 62.324 42.1852 61.6039 42.3411 60.9921C42.4228 60.6709 42.5346 60.2315 42.6366 60.0909C42.738 59.9497 43.1152 59.7079 43.3905 59.5314C44.1206 59.0631 45.0292 58.4801 45.3902 57.3777C45.7472 56.2899 45.3757 55.2622 45.0773 54.4362C44.9417 54.0615 44.7881 53.6362 44.7881 53.4044C44.7881 53.1726 44.9417 52.7478 45.0773 52.3731C45.3757 51.5471 45.7472 50.5188 45.3902 49.4311C45.0292 48.3292 44.1206 47.7462 43.3905 47.2779C43.1152 47.1014 42.738 46.8591 42.6366 46.719C42.5346 46.5779 42.4228 46.1384 42.3411 45.8172C42.1278 44.9789 41.8624 43.9353 40.9538 43.2587C40.2306 42.721 39.3933 42.6587 38.826 42.6587C38.5861 42.6587 38.3543 42.6704 38.1306 42.6822C37.9342 42.6922 37.7488 42.7016 37.5819 42.7016C37.3182 42.7016 37.2058 42.6769 37.1623 42.6622C36.9862 42.6028 36.6466 42.3251 36.3737 42.1016C35.6806 41.5362 34.819 40.832 33.638 40.832C32.4576 40.832 31.5954 41.5362 30.9029 42.1016C30.63 42.3245 30.2904 42.6028 30.1143 42.6622C30.0708 42.6769 29.9578 42.7016 29.6947 42.7016C29.5278 42.7016 29.3418 42.6922 29.1454 42.6816C28.9217 42.6704 28.6905 42.6587 28.45 42.6587C27.8833 42.6587 27.046 42.721 26.3234 43.2587C25.4142 43.9353 25.1482 44.9789 24.935 45.8172C24.8533 46.1384 24.7414 46.5779 24.64 46.7184C24.538 46.8591 24.1608 47.1014 23.8856 47.2779C23.1554 47.7462 22.2474 48.3292 21.8858 49.4311C21.5289 50.5194 21.9003 51.5471 22.1987 52.3731C22.3343 52.7478 22.4879 53.1726 22.4879 53.4044C22.4879 53.6362 22.3343 54.0615 22.1987 54.4362C21.9003 55.2622 21.5289 56.2899 21.8858 57.3783C22.2474 58.4801 23.156 59.0631 23.8856 59.5314C24.1614 59.7079 24.538 59.9503 24.64 60.0909C24.7414 60.2315 24.8533 60.6709 24.935 60.9921C25.0909 61.6039 25.2757 62.3246 25.7167 62.9323V64.4613H2.96688V3.01204H33.6097V15.1343C33.6097 15.9662 34.2738 16.6404 35.0932 16.6404H47.0331V64.4613H41.5599Z" fill="#0F2B3D"/>
</svg>
