<svg width="52" height="80" viewBox="0 0 52 80" fill="none" xmlns="http://www.w3.org/2000/svg">
<path fill-rule="evenodd" clip-rule="evenodd" d="M51.5591 7.32812C51.5591 6.59454 50.9641 6 50.231 6H1.82812C1.09454 6 0.5 6.59454 0.5 7.32812V72.6719C0.5 73.4055 1.09454 74 1.82812 74H36.4159C36.4216 74 36.4268 73.999 36.4325 73.999C36.4704 73.9984 36.5083 73.9974 36.5456 73.9938C36.5664 73.9917 36.5871 73.9875 36.6079 73.9844C36.6297 73.9813 36.652 73.9792 36.6743 73.9746C36.695 73.9704 36.7153 73.9642 36.736 73.9595C36.7573 73.9538 36.7791 73.9497 36.7998 73.9429C36.819 73.9372 36.8372 73.93 36.8559 73.9237C36.8782 73.9154 36.9005 73.9087 36.9223 73.8999C36.9389 73.8931 36.9544 73.8843 36.9705 73.877C36.9939 73.8661 37.0172 73.8563 37.04 73.8444C37.0546 73.8366 37.0686 73.8272 37.0831 73.8189C37.1059 73.8055 37.1293 73.7925 37.1516 73.7774C37.1682 73.7665 37.1827 73.7546 37.1983 73.7432C37.218 73.7287 37.2382 73.7152 37.2569 73.6996C37.2911 73.6716 37.3238 73.6425 37.3549 73.6109L51.17 59.7958C51.2121 59.7538 51.2494 59.7086 51.2852 59.662C51.294 59.65 51.3029 59.6386 51.3112 59.6267C51.3449 59.58 51.376 59.5312 51.403 59.4809C51.4045 59.4778 51.4056 59.4752 51.4071 59.4721C51.432 59.4238 51.4538 59.3735 51.473 59.3221C51.4782 59.3087 51.4829 59.2952 51.4875 59.2817C51.5057 59.2272 51.5218 59.1722 51.5332 59.1157C51.5446 59.0596 51.5503 59.0026 51.5545 58.9455C51.5555 58.931 51.556 58.9164 51.5565 58.9019C51.5571 58.8869 51.5586 58.8718 51.5586 58.8568V7.32812H51.5591ZM3.15625 8.65625H48.9029V57.5287H36.4159C35.6823 57.5287 35.0878 58.1232 35.0878 58.8568V71.3438H3.15625V8.65625ZM37.744 69.4657V60.1849H47.0248L37.744 69.4657Z" fill="#0F2B3D"/>
<path fill-rule="evenodd" clip-rule="evenodd" d="M10.2404 26.2991H18.7731C19.5067 26.2991 20.1013 25.7045 20.1013 24.9709V16.4377C20.1013 15.7042 19.5067 15.1096 18.7731 15.1096H10.2404C9.50687 15.1096 8.91232 15.7042 8.91232 16.4377V24.9709C8.91232 25.7045 9.50687 26.2991 10.2404 26.2991ZM11.5686 17.7659H17.445V23.6428H11.5686V17.7659Z" fill="#0F2B3D"/>
<path fill-rule="evenodd" clip-rule="evenodd" d="M24.2843 17.7659H41.6174C42.3505 17.7659 42.9455 17.1713 42.9455 16.4377C42.9455 15.7042 42.3505 15.1096 41.6174 15.1096H24.2843C23.5508 15.1096 22.9562 15.7042 22.9562 16.4377C22.9562 17.1713 23.5508 17.7659 24.2843 17.7659Z" fill="#0F2B3D"/>
<path fill-rule="evenodd" clip-rule="evenodd" d="M24.2843 26.2991H41.6174C42.3505 26.2991 42.9455 25.7045 42.9455 24.9709C42.9455 24.2374 42.3505 23.6428 41.6174 23.6428H24.2843C23.5508 23.6428 22.9562 24.2374 22.9562 24.9709C22.9562 25.7045 23.5508 26.2991 24.2843 26.2991Z" fill="#0F2B3D"/>
<path fill-rule="evenodd" clip-rule="evenodd" d="M10.2404 34.8323H41.6174C42.3505 34.8323 42.9455 34.2372 42.9455 33.5041C42.9455 32.7706 42.3505 32.176 41.6174 32.176H10.2404C9.50687 32.176 8.91232 32.7706 8.91232 33.5041C8.91232 34.2372 9.50687 34.8323 10.2404 34.8323Z" fill="#0F2B3D"/>
<path fill-rule="evenodd" clip-rule="evenodd" d="M10.2404 43.3655H41.6174C42.3505 43.3655 42.9455 42.7704 42.9455 42.0374C42.9455 41.3038 42.3505 40.7092 41.6174 40.7092H10.2404C9.50687 40.7092 8.91232 41.3038 8.91232 42.0374C8.91232 42.7704 9.50687 43.3655 10.2404 43.3655Z" fill="#0F2B3D"/>
<path fill-rule="evenodd" clip-rule="evenodd" d="M29.9745 49.2418H10.2404C9.50687 49.2418 8.91232 49.8364 8.91232 50.5699C8.91232 51.3035 9.50687 51.8981 10.2404 51.8981H29.9745C30.7081 51.8981 31.3026 51.3035 31.3026 50.5699C31.3026 49.8364 30.7081 49.2418 29.9745 49.2418Z" fill="#0F2B3D"/>
<path fill-rule="evenodd" clip-rule="evenodd" d="M35.287 51.8981C36.0185 51.8981 36.6151 51.3015 36.6151 50.5699C36.6151 49.8384 36.0185 49.2418 35.287 49.2418C34.5555 49.2418 33.9589 49.8384 33.9589 50.5699C33.9589 51.3015 34.5555 51.8981 35.287 51.8981Z" fill="#0F2B3D"/>
</svg>
