<svg width="62" height="70" viewBox="0 0 62 70" fill="none" xmlns="http://www.w3.org/2000/svg">
<path fill-rule="evenodd" clip-rule="evenodd" d="M61.5404 21.6203C61.2782 21.3634 60.9176 21.2218 60.5564 21.2288C60.49 21.2283 56.9198 21.2662 52.9783 20.1601V1.36719C52.9783 0.61203 52.365 0 51.6084 0H15.9336C15.9187 0 15.9037 0.00160218 15.8887 0.00213623C15.8726 0.00267028 15.8566 0.00373841 15.8405 0.00480651C15.7838 0.00854492 15.7282 0.0149536 15.6725 0.0256348C15.6704 0.0261688 15.6677 0.0261688 15.665 0.0267028C15.6083 0.0379181 15.5521 0.0544739 15.497 0.0726318C15.482 0.0779723 15.4665 0.083313 15.4515 0.0891877C15.4012 0.10788 15.3514 0.129242 15.3028 0.154343C15.2985 0.157013 15.2937 0.158615 15.2888 0.160751C15.2375 0.188522 15.1882 0.220566 15.1401 0.254211C15.1278 0.26329 15.1149 0.272903 15.1026 0.282516C15.0545 0.318832 15.0079 0.357819 14.9651 0.400543L0.716391 14.6214C0.673047 14.6647 0.633985 14.7112 0.597598 14.7592C0.587966 14.7715 0.578869 14.7838 0.570307 14.7961C0.536061 14.8441 0.50342 14.8938 0.475594 14.9461C0.473989 14.9488 0.472919 14.952 0.471849 14.9547C0.445629 15.0049 0.423154 15.0567 0.403891 15.109C0.398539 15.1229 0.393188 15.1368 0.388373 15.1512C0.369644 15.2068 0.353056 15.2634 0.341283 15.3216V15.3221C0.330046 15.3798 0.323625 15.438 0.319879 15.4967C0.318809 15.5117 0.317739 15.5267 0.317204 15.5416C0.316669 15.5571 0.315063 15.5726 0.315063 15.5886V68.6328C0.315063 69.388 0.928291 70 1.68493 70H51.6089C52.365 70 52.9788 69.388 52.9788 68.6328V54.7185C57.1713 50.8551 62.0916 43.9823 61.9503 33.0667V22.5954C61.9498 22.2291 61.8021 21.8777 61.5404 21.6203ZM14.5638 4.66766V14.2214H4.99186L14.5638 4.66766ZM51.122 52.7088C47.7664 55.801 44.338 57.3407 43.1522 57.816C41.9027 57.3151 38.1741 55.6344 34.6553 52.2084C34.1138 51.6813 33.2464 51.692 32.7182 52.2324C32.1901 52.7729 32.2008 53.6386 32.7423 54.1657C37.5015 58.7992 42.5068 60.5034 42.7177 60.5739C42.8584 60.6209 43.005 60.6444 43.1516 60.6444C43.2983 60.6444 43.4449 60.6209 43.5856 60.5739C43.7397 60.5226 46.7144 59.5106 50.2385 56.9583V67.2656H3.05479V16.9558H15.9342C16.6903 16.9558 17.304 16.3432 17.304 15.5886V2.73438H50.2391V19.201C47.9296 18.2087 45.7399 16.7326 44.2984 14.5328C44.0453 14.1467 43.6145 13.9138 43.1522 13.9138C42.6898 13.9138 42.2586 14.1467 42.0055 14.5328C37.5491 21.3345 25.8678 21.2277 25.7474 21.2288C25.3803 21.2229 25.0261 21.3634 24.7639 21.6203C24.5017 21.8771 24.354 22.2285 24.354 22.5954V33.0672C24.3 37.2281 24.9785 41.123 26.3703 44.6461C26.648 45.3484 27.4432 45.6934 28.1474 45.4163C28.851 45.1396 29.1967 44.3455 28.919 43.6432C27.6577 40.4501 27.0434 36.9007 27.0937 33.0939C27.0937 33.0881 27.0937 33.0822 27.0937 33.0763V23.9295C30.3568 23.7618 38.4968 22.8053 43.1522 17.531C47.8076 22.8053 55.9476 23.7618 59.2106 23.9295V33.0763C59.2106 33.0822 59.2106 33.0881 59.2111 33.0939C59.3155 41.0674 56.5945 47.6668 51.122 52.7088Z" fill="#0F2B3D"/>
</svg>
