<svg width="70" height="70" viewBox="0 0 70 70" fill="none" xmlns="http://www.w3.org/2000/svg">
<g clip-path="url(#clip0)">
<path fill-rule="evenodd" clip-rule="evenodd" d="M62.2185 11.2446C62.218 11.2291 62.2175 11.2136 62.2164 11.1981C62.2121 11.1399 62.2062 11.0828 62.195 11.0262C62.1945 11.0251 62.1945 11.024 62.1945 11.0235C62.1827 10.9653 62.1661 10.9092 62.1474 10.8537C62.1426 10.8392 62.1377 10.8248 62.1324 10.8109C62.1126 10.7586 62.0907 10.7068 62.0644 10.6571C62.0628 10.6544 62.0618 10.6512 62.0601 10.648C62.0323 10.5962 61.9997 10.5466 61.9654 10.498C61.9563 10.4857 61.9478 10.4734 61.9381 10.4617C61.9018 10.4136 61.8627 10.3671 61.8194 10.3239L51.8771 0.400543C51.8338 0.357285 51.7872 0.318298 51.7391 0.281982C51.7268 0.272369 51.7145 0.263825 51.7022 0.254745C51.654 0.220566 51.6042 0.187988 51.5523 0.160751C51.5486 0.158615 51.5454 0.157547 51.5416 0.155945C51.4924 0.129776 51.4416 0.10788 51.3891 0.0886536C51.3747 0.083313 51.3602 0.0779723 51.3458 0.0731659C51.2901 0.0544739 51.234 0.0379181 51.1767 0.0267028C51.1751 0.0261688 51.1735 0.0261688 51.1719 0.0256348C51.1157 0.0149536 51.059 0.00854492 51.0012 0.00480651C50.9857 0.00373841 50.9696 0.00267028 50.9541 0.00213623C50.9386 0.00160218 50.9236 0 50.9086 0H38.2898C37.5332 0 36.92 0.61203 36.92 1.36719V11.0977C36.92 11.8523 37.5332 12.4649 38.2898 12.4649C39.0465 12.4649 39.6597 11.8523 39.6597 11.0977V2.73438H49.5387V11.2905C49.5387 12.0457 50.152 12.6577 50.9086 12.6577H59.481V30.398H39.6597V22.0352C39.6597 21.2801 39.0465 20.668 38.2898 20.668C37.5332 20.668 36.92 21.2801 36.92 22.0352V31.7652C36.92 32.5204 37.5332 33.1324 38.2898 33.1324H60.8508C61.6075 33.1324 62.2207 32.5204 62.2207 31.7652V11.2905C62.2207 11.275 62.2191 11.2601 62.2185 11.2446ZM52.2785 9.92332V4.66766L57.5439 9.92332H52.2785Z" fill="#0F2B3D"/>
<path fill-rule="evenodd" clip-rule="evenodd" d="M33.1726 48.0641C33.1689 48.0086 33.163 47.9536 33.1523 47.8991C33.1518 47.8959 33.1512 47.8922 33.1501 47.8884C33.1389 47.8318 33.1229 47.7768 33.1047 47.7229C33.0993 47.7074 33.094 47.6924 33.0881 47.6769C33.0688 47.6267 33.0479 47.5771 33.0228 47.529C33.0207 47.5242 33.0185 47.5194 33.0164 47.5146C32.9885 47.4633 32.957 47.4147 32.9227 47.3666C32.9136 47.3538 32.904 47.341 32.8944 47.3282C32.8585 47.2812 32.8205 47.2363 32.7788 47.1941C32.7777 47.1936 32.7772 47.1925 32.7761 47.1915L22.8334 37.2681C22.79 37.2249 22.7435 37.1859 22.6953 37.1496C22.6835 37.14 22.6712 37.1314 22.6589 37.1223C22.6102 37.0882 22.561 37.0556 22.5086 37.0278C22.5053 37.0262 22.5027 37.0251 22.4995 37.0235C22.4497 36.9979 22.3978 36.9755 22.3454 36.9563C22.3309 36.9509 22.317 36.9456 22.3025 36.9408C22.2469 36.9221 22.1907 36.9055 22.1329 36.8938C22.1318 36.8938 22.1308 36.8938 22.1297 36.8932C22.073 36.8826 22.0157 36.8761 21.9574 36.8719C21.9419 36.8713 21.9264 36.8703 21.9108 36.8697C21.8953 36.8692 21.8803 36.8676 21.8648 36.8676H9.24657C8.48994 36.8676 7.87671 37.4796 7.87671 38.2348V68.6328C7.87671 69.388 8.48994 70 9.24657 70H31.8076C32.5642 70 33.1774 69.388 33.1774 68.6328V48.1581C33.1774 48.1432 33.1758 48.1287 33.1753 48.1143C33.1748 48.0972 33.1742 48.0807 33.1726 48.0641ZM23.2347 41.5353L28.5006 46.7909H23.2347V41.5353ZM10.6164 67.2656V39.602H20.495V48.1581C20.495 48.9133 21.1082 49.5253 21.8648 49.5253H30.4377V67.2656H10.6164Z" fill="#0F2B3D"/>
<path fill-rule="evenodd" clip-rule="evenodd" d="M62.2164 48.0657C62.2121 48.008 62.2062 47.9504 62.195 47.8943C62.1945 47.8932 62.1945 47.8922 62.1945 47.8905C62.1827 47.8329 62.1661 47.7768 62.1474 47.7213C62.1426 47.7068 62.1377 47.6924 62.1324 47.6785C62.1126 47.6262 62.0907 47.5749 62.065 47.5253C62.0628 47.522 62.0618 47.5188 62.0601 47.5156C62.0323 47.4633 62.0002 47.4142 61.966 47.3661C61.9569 47.3533 61.9478 47.341 61.9381 47.3287C61.9018 47.2812 61.8638 47.2353 61.821 47.1931C61.8204 47.1925 61.8199 47.192 61.8199 47.1915L51.8771 37.2681C51.8766 37.2676 51.8761 37.2676 51.8755 37.2671C51.8327 37.2243 51.7867 37.1859 51.7391 37.1496C51.7268 37.14 51.715 37.1314 51.7027 37.1223C51.654 37.0882 51.6042 37.0556 51.5518 37.0278C51.5491 37.0262 51.5459 37.0251 51.5432 37.0241C51.4935 36.9979 51.4416 36.9755 51.3886 36.9563C51.3747 36.9509 51.3608 36.9456 51.3463 36.9408C51.2907 36.9221 51.234 36.9055 51.1762 36.8943C51.1751 36.8938 51.174 36.8938 51.1729 36.8938C51.1168 36.8826 51.059 36.8761 51.0012 36.8724C50.9857 36.8713 50.9696 36.8703 50.9541 36.8697C50.9386 36.8692 50.9236 36.8676 50.9086 36.8676H38.2898C37.5332 36.8676 36.92 37.4796 36.92 38.2348V68.6328C36.92 69.388 37.5332 70 38.2898 70H60.8508C61.6075 70 62.2207 69.388 62.2207 68.6328V48.1581C62.2207 48.1426 62.2191 48.1277 62.2185 48.1122C62.218 48.0967 62.2175 48.0812 62.2164 48.0657ZM52.2785 41.5353L57.5439 46.7909H52.2785V41.5353ZM39.6597 67.2656V39.602H49.5387V48.1581C49.5387 48.9133 50.152 49.5253 50.9086 49.5253H59.481V67.2656H39.6597Z" fill="#0F2B3D"/>
<path fill-rule="evenodd" clip-rule="evenodd" d="M33.1726 11.196C33.1689 11.141 33.163 11.086 33.1523 11.0315C33.1518 11.0278 33.1512 11.0246 33.1501 11.0208C33.1389 10.9642 33.1229 10.9092 33.1047 10.8553C33.0998 10.8398 33.094 10.8243 33.0881 10.8088C33.0693 10.7586 33.0479 10.7095 33.0233 10.6614C33.0207 10.6566 33.0185 10.6518 33.0164 10.647C32.9885 10.5957 32.957 10.5471 32.9233 10.4996C32.9136 10.4862 32.904 10.4729 32.8938 10.4601C32.8585 10.4141 32.8211 10.3693 32.7799 10.3276C32.7782 10.3265 32.7777 10.3249 32.7761 10.3233L22.8334 0.400543C22.8334 0.400009 22.8328 0.399475 22.8323 0.399475C22.789 0.35675 22.7429 0.318298 22.6953 0.281982C22.6835 0.272903 22.6712 0.263825 22.6589 0.254745C22.6102 0.220566 22.5605 0.188522 22.508 0.160751C22.5053 0.159149 22.5027 0.158081 22.5 0.156479C22.4497 0.13031 22.3978 0.10788 22.3448 0.0881195C22.3309 0.083313 22.317 0.0779723 22.3031 0.0736999C22.2469 0.0544739 22.1902 0.0379181 22.1318 0.0261688C22.0741 0.0149536 22.0157 0.00854492 21.9563 0.00480651C21.9413 0.00373841 21.9264 0.00267028 21.9114 0.00213623C21.8959 0.00160218 21.8803 0 21.8648 0H9.24657C8.48994 0 7.87671 0.61203 7.87671 1.36719V31.7652C7.87671 32.5204 8.48994 33.1324 9.24657 33.1324H31.8076C32.5642 33.1324 33.1774 32.5204 33.1774 31.7652V11.2905C33.1774 11.2756 33.1758 11.2611 33.1753 11.2467C33.1748 11.2296 33.1742 11.2131 33.1726 11.196ZM23.2347 4.66766L28.5006 9.92332H23.2347V4.66766ZM10.6164 30.398V2.73438H20.495V11.2905C20.495 12.0457 21.1082 12.6577 21.8648 12.6577H30.4377V30.398H10.6164Z" fill="#0F2B3D"/>
<path fill-rule="evenodd" clip-rule="evenodd" d="M38.2898 17.9337C39.0443 17.9337 39.6597 17.3195 39.6597 16.5665C39.6597 15.8129 39.0443 15.1987 38.2898 15.1987C37.5353 15.1987 36.92 15.8129 36.92 16.5665C36.92 17.3195 37.5353 17.9337 38.2898 17.9337Z" fill="#0F2B3D"/>
</g>
<defs>
<clipPath id="clip0">
<rect width="70" height="70" fill="white"/>
</clipPath>
</defs>
</svg>
